<svg version="1" xmlns="http://www.w3.org/2000/svg" width="933.333" height="933.333" viewBox="0 0 700.000000 700.000000"><path d="M327.8.4c-.1.2-4.2.6-8.9 1s-9.5.8-10.5 1c-1 .2-4.6.7-7.9 1.2-3.3.4-6.2.8-6.5.9-.3 0-2.7.4-5.5.9-13.7 2.1-50.7 12.3-62 17.1-1.6.7-6.5 2.7-10.9 4.4-26.1 10.6-53.6 26.5-78.4 45.3C127 80 124.7 81.9 114.6 91 71.9 129.5 37.8 181.4 19 236.4 15.3 247.1 8.8 270.6 7.6 277c-.2 1.4-1 5.4-1.6 9-.7 3.6-1.4 7.5-1.5 8.7-.2 1.3-.6 4.2-1 6.5-.8 4.7-1 6.2-2.2 18.8-1.5 16.2-.8 58.8 1.2 71.1.2 1.3.6 4.6 1 7.4 1.1 9.2 1.6 11.9 4.7 26 7.7 35.7 22.7 73.9 41.1 104.4 3.1 5.2 5.7 9.6 5.7 9.8 0 .2.4.9 1 1.6.5.7 4.6 6.4 9.1 12.7 15.7 22.2 35 43.4 55.9 61.5 9.7 8.4 10.4 9 16.5 13.6 23.8 18.1 52.6 34.5 81 46.3 13.6 5.6 44 15.1 54.9 17.2 1.2.2 5.5 1 9.6 1.9 23.7 4.7 38.6 6 67.5 6 26.3 0 33.3-.6 58.5-4.6 52.5-8.6 108.6-32.9 151.8-65.7 6-4.6 12.8-10 14.6-11.7.6-.6 2.9-2.5 5.1-4.4 5.3-4.5 18.7-17.5 25.5-24.8 43.9-47.1 74.2-105.9 86.9-169 1.6-8.1 3.3-17.7 3.7-21.3.3-3.6.8-6.8 1-7.2 2.5-4.2 2.4-73.2-.1-82.8-.3-.8-.7-3.8-1-6.6-.3-2.8-.7-5.9-.9-7-.2-1-1.1-6-2.1-10.9-15.6-83.4-63.9-160.9-133.1-213.3-46.1-34.8-104.7-59-161.4-66.6-6.3-.9-13.5-1.8-16-2.2-4.6-.6-54.6-1.5-55.2-1zM379 16.3c1.4.3 5.8.8 9.8 1.2 4 .3 7.8.8 8.5 1 .7.2 2.9.7 5 1 9 1.3 11.7 1.8 20.2 3.6 15.2 3.4 43.6 12 46.3 14.1.6.6 1.2.8 1.2.5 0-1.4 29.4 12.1 42.5 19.6 40.6 22.9 75.9 53.5 104 90.2 17.1 22.2 33.2 50.4 43.8 76.5 3.7 9.2 9.7 25.7 9.7 26.8 0 .5.9 3.7 1.9 7 1.8 5.4 6.2 24.1 7.5 31.7.3 1.6.8 4.1 1.1 5.4.2 1.3.7 4.9 1.1 8 .3 3.1.8 6.4.9 7.3 1.9 10.1 2.6 52.9 1.2 68.8-2.5 26.7-6.9 48-16.1 77.2-3.4 10.7-12.2 31.7-19 45-46.3 91.3-131.2 156.2-231.1 176.7-24 4.9-39.9 6.5-65.5 6.6-31.6 0-50-2.1-79.5-9C166.6 650.4 79.8 575.4 39 473.5c-6.5-16.1-15.2-45.4-17.3-58-2.1-12.6-3.7-22.7-4.1-26.5-3-25.7-2.6-61.9.9-85.5.3-1.7.7-4.8 1-7 1.4-9.5 7.9-36.4 11.5-47.8 13.8-43.1 37.7-85.7 67-119.2 4.4-5.1 28.6-29.1 33.1-32.9 49.4-41.5 106-67.8 165.9-77.1 15.1-2.3 16.5-2.5 26.3-3.1 5-.4 9.4-.8 9.6-1 .6-.5 43 .4 46.1.9z"/><path d="M323 32c-14.6 1.4-19.7 2.2-34.5 5.1-36.2 7.3-67.4 19-98.8 37.1-9.6 5.6-24.1 15-29.2 19-.5.4-3.7 2.9-7 5.5C96.1 143.4 54.7 208.7 39 279c-1 4.7-2.2 10.1-2.5 12-.3 1.9-1 6-1.5 9-3.8 21.6-4.9 59.7-2.4 83 12.8 117.6 87.9 217.7 196.9 262.3 25.7 10.5 54.7 18.1 81.2 21.2 2.7.4 8.2 1 12.3 1.5 7 .8 51.9.5 58.5-.4 1.7-.2 5.3-.7 8-1 2.8-.4 6.1-.8 7.5-1.1 1.4-.2 4.1-.6 6-.9 18.9-2.7 49.4-11.6 71-20.8 22.2-9.4 46.6-23.1 62.5-35.1 20.6-15.4 40.7-33.7 52.9-48.1 2.2-2.6 4.9-5.8 6-7 15.6-17.8 35.1-49.4 46.3-74.7 9.9-22.4 19.4-52.8 21.8-69.9.3-2.5.8-5.2 1-6 .7-2.5 2.5-15.9 3.3-24.5.9-10.5.9-47.9-.1-57.5-3.9-39.1-14-75.4-30.4-109.8-6-12.5-19.6-35.8-25.6-43.7-.4-.5-3.9-5.3-7.8-10.5-20.7-27.5-48.4-53.5-77.7-72.9-41-27.1-89.6-45.1-136.7-50.7-2.7-.3-6.1-.8-7.5-1.1-4.1-.8-50.9-1.1-59-.3zm48 7.4c14 .8 28.9 2.9 44.5 6.2 3.9.9 7.8 1.7 8.7 1.9 6.9 1.5 24.5 7.1 40.8 13 7.3 2.7 36 16.8 42.3 20.8 3.1 2 5.9 3.7 6.2 3.7.2 0 4.8 3 10.2 6.7 62.6 42.3 108 106.1 127.3 178.8 1.6 6 4 17.1 5.4 24.5 2.3 12.8 2.9 17.6 4.2 33 .8 8.4.7 37.8 0 45.2-.3 3.2-.8 8.4-1.1 11.5-.3 3.2-.8 6.9-1 8.3-.3 1.4-.7 3.8-.9 5.5-1.8 11.3-4.8 24.7-8.2 36.7-2.5 9.2-9.1 28-11.8 34.2-.9 2-2.3 5.3-3.2 7.3-22.7 52.6-65.4 102.5-114.9 134.5-51.4 33.2-110.5 50.4-171.5 50.1-107.8-.5-208.1-57.4-264.5-150.2-33-54.3-48.8-119.9-44.1-183.6 1.5-21 5.5-43.1 11.2-63 15-51.4 40.9-95.7 77.9-133 26.6-26.8 49.7-43.6 82.4-60 25.2-12.6 60.5-24.4 83.6-28 2.2-.3 8.5-1.3 14-2.1s15.9-1.8 23-2.1c7.2-.3 13.1-.6 13.2-.7.3-.3 17.7.2 26.3.8z"/><path d="M372.9 76.1c0 .8-.2 2.3-.4 3.4-.3 1.1-.7 3.8-.9 6-.7 5.6-4.5 30.5-5 33.2-.6 2.7-1.4 2.4 17.7 5.3 7.6 1.1 14.1 2.1 14.5 2.1 2.2.4 3-.5 3.4-3.6.5-4.1.1-4.3-14.2-6-1.9-.2-5.2-.7-7.3-1.1l-3.8-.6.7-5.6c.6-5.6 1.6-7.4 3.8-6.7.6.2 2.9.7 5.1 1 2.2.3 5.4.8 7 1 8.9 1.4 8.3 1.6 9-2.2.3-1.9.4-3.8 0-4.1-.6-.6-1-.7-8.5-1.7-2.5-.3-6.1-.9-8-1.2-1.9-.3-4.1-.6-4.8-.6-.9 0-1.2-1.1-.8-3.6.3-2 .5-4.3.6-5.2 0-1.4.9-1.5 9.3-.3 17.1 2.3 16 2.4 16.5-1.9.2-2 0-3.7-.5-3.8-.4 0-1.9-.2-3.3-.5-1.4-.2-5.6-.9-9.5-1.5-3.8-.6-8.1-1.2-9.4-1.4-10.3-1.7-11.1-1.7-11.2-.4zM307.2 77.4c-9.7 3.2-14.8 9.4-15.8 19.3-1.2 11 4.1 21.8 12.4 25.6 9.2 4.2 21.8 2.1 30.2-5 3-2.5 3.1-2.9 2.5-7.7-1.6-12.5-1.8-13.1-5-13.2-1.7 0-5 .4-7.5.8-2.5.5-5.4 1-6.5 1.1-2.7.2-3.2 1.1-2.7 5.1.4 3.2.5 3.3 3.5 2.7 5.8-1.3 8-.8 8.4 1.8.4 3.1-1.2 5-6.5 7.3-7.3 3.3-13.6.7-17.3-6.9-5.2-10.7-.7-22.9 8.6-23.4 5.6-.3 7.2.1 9.8 2.7 2.4 2.4 2.8 2.5 6.6 1.3 2.3-.7 4.1-1.8 4.1-2.4 0-2-3.9-6.4-7.1-8-4.2-2.2-12.7-2.7-17.7-1.1zM445 92.7c0 1 .4 4.5 1 7.8.5 3.3 1.2 8.5 1.5 11.5l.5 5.5-12.1 7.5-12.1 7.4 5 2.5 5 2.4 7.9-5c5.1-3.3 8-4.7 8.4-3.9.4.6.9 3.8 1.3 7.1 1.1 9.7 1.4 10.4 6.3 12.6 2.5 1.1 4.7 1.8 4.9 1.6.4-.4-.5-7.3-2.1-16.6-.2-1.3-.7-4.3-1.1-6.7l-.6-4.2 11.2-7.3 11.2-7.2-4.7-2.4-4.7-2.4-7 4.6c-5.1 3.4-7.3 4.3-7.8 3.5-.4-.7-1.1-4.5-1.5-8.5l-.6-7.2-4.5-2.1c-5.4-2.6-5.4-2.6-5.4-.5zM236.8 99.5c-8.8 3.6-21.7 10-21.8 10.6 0 .4 4.5 9.9 10 21.3l10 20.6 4-2c2.2-1.1 4-2.4 4-2.8 0-.4-1.8-4.3-3.9-8.7-3.9-8-3.9-8-1.7-9.2 3.7-2.1 6.8-1.4 15.8 3.7 4.8 2.7 9.2 5 9.8 5 .5 0 3-1 5.5-2.2l4.5-2.2-6.3-4c-3.4-2.2-8.6-4.9-11.6-6.2-3.9-1.6-4.9-2.4-3.9-3 6-3.6 6.3-13.4.7-19-4.3-4.3-8.2-4.8-15.1-1.9zm8.4 9.2c2.3 2 2.3 5.5.1 7.5-2 1.7-11.7 6.8-13.1 6.8-.9 0-5.8-9.8-5.1-10.3 1.5-1.2 12.7-5.6 14.3-5.6 1.1-.1 2.8.6 3.8 1.6zM509.3 134.8c-2.8 3.1-9.6 11.1-15.2 17.6l-10.1 12 2.7 2.8c1.5 1.5 3.2 2.8 3.8 2.8.6 0 3.3-2.7 6.1-6 2.7-3.3 5.2-6 5.5-6 .7 0 5.2 3.4 8.3 6.2 7.7 7 18.7 5.4 23.2-3.4 4.5-8.6 3-12-10.2-23.8-10.1-9-8.4-8.7-14.1-2.2zm12.5 11.5c4.6 4.7 5.4 8.3 2.5 10.9-3.2 2.7-5 2.7-9.5-.1-7.3-4.7-7.5-5.3-3.2-10.6 2.1-2.5 4.3-4.5 4.9-4.5.6 0 3 1.9 5.3 4.3zM165.2 147.1c-3.7 3.5-3.7 4.5-.3 12.3 1.1 2.2 4.7 11.3 8.1 20.1 3.5 8.8 6.6 16.3 7 16.8.3.4 2.1-.9 4-2.8l3.3-3.4-2.2-5.3c-2-4.9-2.1-5.4-.5-6.5.9-.7 4-3.4 6.8-6.1l5.2-5 5.2 2.6 5.2 2.6 3.5-3.4c1.9-1.9 3.2-3.7 2.8-4.1-.9-.8-43.5-20.9-44.3-20.9-.3 0-2 1.4-3.8 3.1zm16.6 12.7l7.3 3.8-4.6 4.3-4.5 4.3-2.6-5.9c-3.8-8.4-4.4-10.3-3.6-10.3.4.1 4 1.8 8 3.8zM557.5 190c-12.6 2.7-22.4 13.6-22 24.5.3 8.4 5.9 17 13.3 20.5 11.6 5.5 27.5-1.6 33.4-14.9 3.6-7.9.3-19.1-7.4-25.6-5.1-4.3-11-5.8-17.3-4.5zm10.8 10.2c3.3 1.7 6.7 6 6.8 8.5.1 1.3.2 2.9.3 3.5.5 2.8-4 9-8.5 11.9-5 3.2-10.8 4.3-14.8 2.7-2.8-1-7.1-5.3-7.2-7.1 0-.7-.2-2.1-.4-3.2-1.5-7.4 9-17.4 18.3-17.5 1.8 0 4.3.5 5.5 1.2zM112.4 215l-2.2 3.9 19.8 12 19.9 12 8.5-14.2 8.6-14.1-3-1.9c-1.6-1-3.3-1.6-3.8-1.3-.5.3-3.3 4.6-6.3 9.5-3 5-5.8 9.1-6.3 9.1s-7.5-4-15.5-8.9c-8-5-15.3-9.2-16.1-9.5-1-.4-2.2.7-3.6 3.4zM214.5 213.7c-2.9.8-9.5 7.8-9.5 10.1 0 7 11.2 32.3 21.5 48.7 5.3 8.5 18.3 26.4 21.3 29.4 2.8 2.8 4 5.7 4.6 10.7 2.4 20.7 12.6 31.8 21.6 23.4l3.2-3 5.2 4.2c2.8 2.4 5.6 4.8 6.2 5.3.9.9 16.3 12.6 17.2 13.1.2.1-.4 1.6-1.3 3.4-1.4 2.8-1.5 3.4-.2 5.4 1.4 2 1.1 2.7-3.5 9.1-5 7.1-22.6 28.1-27.1 32.4-1.9 1.7-4 2.4-7.9 2.7-26.8 2.1-45.7 6.2-55.1 12.1-4.4 2.8-4.2 3.8 1.2 4.6 2.1.2 6.6 2.1 10 4 7.8 4.6 13.9 6.4 22.5 6.5 3.8.1 7.3.5 7.9 1.1.6.6.4 3.2-.6 7.3-2 8.2-1.9 38.9.2 39.6 3 1 13.1-12.3 18.9-24.8 4.1-9 8.8-23.5 10.8-33.4l1.6-8.4 6.3-4.5c6.8-4.9 23.5-15.1 30.2-18.6 3.4-1.7 5.2-2 8.5-1.4 2.4.4 4.6.6 5 .5.4-.1 1 .8 1.4 2.1.3 1.2 1.7 3.7 3.1 5.4 2.8 3.9 5.6 4.2 11.3 1.3 3-1.6 4.5-1.8 6.5-1 2.2.8 3 .6 4.9-1.5 2.2-2.4 8.5-4.4 14-4.5 1.9 0 7.7 2.8 16.5 8.1 17.9 10.7 24.1 15.4 24.1 18.2 0 4 5 22 8.7 31.2 5.6 14.3 16.1 30.5 21.7 33.5 2.4 1.2 2.9 1.2 4.3-.3 1.5-1.5 1.8-4.3 2-19 .2-10.4-.2-19.2-.9-22.2-.6-2.8-.9-5.2-.7-5.5.2-.2 3.5-.6 7.2-.7 8.3-.2 12.1-1.4 21.2-6.3 3.9-2.1 8.5-4.1 10.3-4.3 3.7-.6 6.2-2.3 6.2-4.3 0-4.7-20.9-12.9-38.5-15-2.2-.2-5.6-.6-7.5-.9-1.9-.2-7.1-.7-11.5-1.1-8.9-.7-7.3.4-19.1-13-13.9-15.7-21.8-26.4-20.4-27.8 1.5-1.5 1.2-4.2-1-8.8-1.1-2.3-2-4.3-2-4.4 0-.1 4.8-4 10.8-8.8 5.9-4.7 12.5-10.1 14.6-12.1l4-3.6 1.8 3.5c3.3 6.4 8.2 6.8 12.7 1 2.5-3.2 5.9-13.6 6.7-20.8.6-5 2.5-9.1 6.1-13.1 4.9-5.5 17.4-22.9 21.3-29.7 8.7-15.2 15.9-30.7 17.9-38.3.7-2.8 1.4-5.5 1.6-6.2.2-.6-.2-1.7-1-2.3-1-.9-2.2-.3-5.1 2.7-3.8 3.7-3.8 3.3-.2-1.9 2.4-3.5 2.3-5.4-.4-6.2-6.7-1.8-16.3.4-29.7 6.6-6.8 3.2-25.8 14.3-32.2 18.8-2 1.4-5.8 4-8.5 5.9-2.7 1.9-8.8 6.5-13.5 10.3l-8.7 6.8-6.5-4c-7.6-4.5-17.1-8-22.2-8-3.2 0-3.5.2-3.5 2.9 0 2-.8 3.4-2.5 4.5-2.1 1.4-2.4 2-1.4 3.7.9 1.7.7 2.4-1 4s-1.9 2.4-1 4c.8 1.6.7 2.5-.6 3.9-1 1.1-1.5 2.6-1.1 3.5.3.9 0 2.6-.8 3.7-1.4 2-1.4 2-2.5 0-.6-1.1-.9-2.9-.6-4.1.2-1.1-.3-2.8-1.2-3.6-.8-.9-1.2-2.2-.9-3 .3-.9 0-2.8-.6-4.3s-1.2-4-1.3-5.6c-.1-1.6-.9-3.4-1.8-4.1-.9-.7-1.7-2.1-1.7-3.2 0-3.2-2.7-4.7-8.1-4.5-6.9.3-19.6 5.3-25 9.9-1.4 1.1-2.3.8-6.5-2.4-2.7-2-5.1-3.9-5.4-4.2-.8-.9-6.7-5.3-16-11.7-28.7-20.1-55.7-31.7-66.5-28.7zM352 288.1c0 1.1-.4 1.8-1 1.4-.5-.3-.7-1.2-.3-2 .7-2.1 1.3-1.9 1.3.6zM95.2 326.8c-1.5 1.5-3.9 3.3-5.4 4-3.5 1.5-4.6 5.4-2.4 8.7.9 1.3 1.6 3.3 1.6 4.4 0 3 2.1 7 3.9 7.4.9.2 3-.1 4.7-.5 1.8-.5 4.2-.4 5.6.1 4 1.5 7.2-.7 7.8-5.4.3-2.2 1.4-5.2 2.3-6.6 2.3-3.4.7-7.4-3.5-8.8-1.7-.6-3.9-2.2-5-3.6-2.6-3.3-6.2-3.2-9.6.3zM593.6 326.2c-.9 1.3-3.3 3.2-5.3 4.3-4.3 2.3-5.3 5.3-2.9 9 .9 1.3 1.6 3.7 1.6 5.2.1 5.1 3.7 7.6 8.5 6 1.1-.4 3.6-.2 5.5.3 4.6 1.3 8-.8 8-5.2 0-1.7.9-4.6 2.1-6.5 2-3.2 2-3.5.4-5.9-.9-1.4-2.8-2.9-4.2-3.5-1.4-.5-3.4-2.1-4.5-3.4-2.5-3.2-7.1-3.4-9.2-.3zM112.4 421.1c-8.7 6.7-16 12.3-16.2 12.4-.1.1.2 1.4.8 2.9.9 2.5 1.3 2.6 4.9 2.1 2.1-.3 6.1-.8 8.7-1.1 2.7-.2 6-.6 7.4-.9 1.4-.2 5.7-.7 9.5-1.1l7-.7-14 10.8c-7.7 6-14.2 11-14.4 11.1-.2.2 0 1.5.3 2.9.6 2.3 1 2.5 4.4 2.1 2-.3 6.2-.8 9.2-1.2 3-.3 6.6-.7 8-.9 1.4-.2 5.2-.6 8.5-1 3.3-.3 6.9-.8 8-1 1.1-.2 2.6-.4 3.3-.4 1.4-.1 1.6-2 .3-3.9-.7-1.1-3.4-.9-15.2.8-7.9 1.2-15.7 2.4-17.4 2.7-2.6.5-2.2 0 2.9-3.6 5.5-3.9 18.7-14.3 21.2-16.7.9-.8.8-1.9-.2-4.3-.7-1.8-1.7-3-2.1-2.8-.5.3-3.7.8-7.3 1.2-3.6.4-7.2.8-8 1-.8.1-4.2.6-7.5.9-3.3.4-7.3.9-8.9 1.2l-3 .5 2.5-1.9c1.3-1 7.7-5.6 14.2-10.1 9.3-6.6 11.7-8.8 11.5-10.4-.2-1.1-.8-2.2-1.4-2.4-.5-.2-8.2 5.1-17 11.8zM567.7 418.2c-3.2 3.5-11.2 22.7-9.9 24 .4.4 8.9 3.8 19 7.7 18 6.8 18.3 6.9 19.2 4.8 1-2.7.8-2.9-6.5-5.7-10.2-3.9-9.7-3.5-8-7.8 2.7-6.3 4.7-7.7 14.6-9.7 8.5-1.7 9.2-2 10.4-4.9.7-1.7 1.3-3.2 1.2-3.3-.6-.5-16.7 3.7-19.2 4.9l-3 1.6-.1-4.6c-.1-3.8-.7-5.1-3.3-7.4-4.6-4.1-10.3-3.9-14.4.4zm11.8 5.1c.8 1.2 1.5 2.9 1.5 3.9 0 3.1-5.2 15.8-6.5 15.8-.7 0-3.6-1-6.4-2.2-3.9-1.6-5-2.5-4.6-3.7.4-.9 1.6-4.1 2.7-7.1 2.4-6.4 3.5-7.9 6.2-9 2.8-1 5.4-.1 7.1 2.3zM545.1 463.9c-1.2 2.2-1.6 1.8 9.9 9.6 15.2 10.3 17.3 13.4 13.8 20.4-2.1 4.4-6.8 7.2-10.6 6.5-1.4-.3-7.8-4.1-14.3-8.6-9.9-6.7-12.1-7.9-13.4-6.8-.8.7-1.5 1.8-1.5 2.4.1 1.5 21.5 16 26.1 17.6 7.2 2.6 15.1-1.7 18.9-10.3 3-6.7 1.4-12.9-4.7-17.7-5.2-4.1-21.4-15-22.3-15-.5 0-1.4.9-1.9 1.9zM143.5 483.1c-8.8 6.6-16.2 12.2-16.3 12.4-.2.2 3.8 5.8 8.8 12.5 8.8 11.4 9.4 12 11.1 10.4 1.7-1.5 1.5-2-3.9-9.3-3.1-4.2-6.5-8.5-7.4-9.5-1.6-1.8-1.6-2.1-.2-3.7 2-2.2 9.3-7.3 9.8-6.8.1.2 3.2 4.3 6.7 9 5.9 7.8 6.7 8.5 8.3 7.4 2.1-1.6 2.2-1.2-5.7-11.9l-5.8-7.9 2.8-2.3c1.5-1.3 3.9-2.9 5.2-3.6 2.1-1.1 2.5-1 3.7.7.7 1.1 4 5.5 7.2 9.7 5.6 7.3 6 7.6 7.6 5.9 1.5-1.6 1.1-2.5-6.9-13.1-4.7-6.2-8.6-11.4-8.8-11.6-.1-.2-7.5 5.1-16.2 11.7zM507.4 511.3c-7.4 2.8-12.6 9.7-12.9 17.2-.6 15.2 16 27.3 29.3 21.5 14.1-6.3 15.6-23.6 3-34.4-6.2-5.3-12.8-6.8-19.4-4.3zm11.4 5.2c6.3 3.2 11.9 11.6 11.5 17.2 0 .7-.1 2.2-.2 3.3 0 1-1.6 3.5-3.5 5.4-7.9 7.8-19.3 4.6-25.6-7.4-5.9-11.4 6.4-24.1 17.8-18.5zM207.9 540.2c-3.4 5.7-7.7 12.5-9.4 15.3-5.6 8.7-5.9 9.6-3.8 10.1 1 .3 2.1.6 2.5.7.4.1 2.2-2.1 4-5 1.8-2.8 5.7-9 8.7-13.7 2.9-4.7 5.4-8.6 5.6-8.6.1 0-.4 2.6-1.1 5.7-.8 3.2-1.6 7.1-1.9 8.8-.3 1.6-1 4.3-1.5 6-.5 1.6-1.2 4.3-1.4 6-.3 1.6-.8 4.2-1.1 5.6-.5 2-.1 2.8 1.9 3.7 1.4.6 2.8.8 3 .3 1.5-2.3 25.6-21 24.5-19-.7 1.3-4.5 7.7-8.5 14.1l-7.3 11.8 2.2 1.5c1.9 1.4 2.3 1.4 3.2.1 3.9-5.9 19.6-32.6 19.5-33.3-.1-.4-1.4-1.6-2.8-2.5l-2.7-1.7-13.5 11.4c-7.4 6.3-13.8 11.4-14.2 11.4-.4.1-.3-1 .2-2.4s.8-2.5.5-2.5c-.2 0 .1-1.5.6-3.3 1.3-4.6 5.9-24.7 5.9-26.1 0-1-4.9-4.6-6.3-4.6-.3 0-3.3 4.6-6.8 10.2zM471.4 539c-3.1 1.2-3.3 1.8-4 10.6-.6 8.3-1.1 12.5-1.6 12.9-.2.1-4.6-2.1-9.8-5-9.2-5.1-9.6-5.2-12.4-3.8l-2.9 1.5 7.9 4.3c15.8 8.5 17.6 9.8 20.1 14.5 1.3 2.5 3.1 5.7 3.9 7.2 1.3 2.5 1.7 2.6 3.9 1.6l2.5-1.1-4.1-7.6c-4.5-8.2-4.5-8.3-1.9-28.6.5-3.8.8-7 .7-7.1-.1-.1-1.2.2-2.3.6zM275 565.2c-1.4 1.8-7.3 9.3-13.3 16.7-10.5 13.3-10.7 13.5-8.5 14.8 2.5 1.3 2.8 1.1 8.8-6.4l2.5-3.1 8 2.7 7.9 2.6.4 6.5c.2 3.5.4 6.5.5 6.6.1.2 1.5.6 3 .9l2.9.8-.7-7.4c-.9-10.5-1.3-15.3-2-24.5-.8-11-.9-11.4-2.6-12.5-2.5-1.6-4.3-1-6.9 2.3zm4.6 12.6l.5 10.1-5.3-1.8c-2.9-1-5.9-2-6.5-2.2-.8-.3.7-2.9 3.7-6.8 2.7-3.5 5.2-7.3 5.6-8.3 1-3.3 1.4-1.5 2 9zM386 570.6c-5.2.7-11.5 1.6-13.9 1.9-2.5.3-4.6.7-4.7.8-.1.1.2 2.5.6 5.3.5 2.8 1.1 7.5 1.5 10.5.3 3 .8 6.3.9 7.4.5 3 2 14.9 2.1 16 0 .5.9.9 1.9.8 5.5-.4 18-2 22.1-2.8 1.1-.2 3-.4 4.3-.4 1.8-.1 2.3-.6 2-2.4-.3-2.4-1.4-2.6-10.5-1.4-2.9.4-7.5 1-10.2 1.3l-4.8.6-.7-6.2c-.4-3.5-.4-6.6.1-7 .8-.8 4.1-1.4 14.8-2.6 5.8-.7 6.8-1.4 5.9-3.8-.6-1.5-1.5-1.7-5.8-1.2-5.8.7-11.1 1.5-14.3 2.2-1.9.4-2.3-.1-2.9-4.3-1.3-7.7-1.2-7.7 3.1-8.5 3.8-.7 12.8-1.9 17-2.3 2.1-.2 3.3-3.2 1.8-4.4-.4-.4-5.1-.2-10.3.5zM316.4 572.1c-.4.6-.8 2.8-.9 4.8-.2 2-.6 7.9-1.1 13.1-.4 5.2-.8 12.4-.8 15.9-.1 6 .1 6.4 2.2 6.6 1.4.1 2.2-.4 2.3-1.4.8-12.1.9-12.6 4.2-15.3 1.7-1.5 3.5-2.8 3.8-2.8.3 0 3 4.2 6 9.2 6.4 10.9 8 12.8 11.4 12.8 1.4 0 2.5-.2 2.5-.4s-3.4-5.9-7.6-12.6c-4.1-6.7-7.4-12.5-7.2-13 .2-.4 4.2-4 9-7.8l8.8-7-3.7-.4c-3.3-.4-6.5 1.2-10.3 5.2-1.3 1.4-12.7 10.8-13.9 11.5-1.1.6-1.2-.6-.7-7.6.4-4.6 1-8.7 1.2-9.1.3-.4-.4-1.2-1.5-1.7-2.5-1.4-2.8-1.4-3.7 0z"/></svg>