<svg xmlns="http://www.w3.org/2000/svg" width="379" height="134" viewBox="0 0 379 134" fill="#ee3424">
	<path
		d="M43.4.7c9 0 11.9 6.5 14.2 12.9 1 2.7 24.5 67 25.2 68.9.2.5.1 1.4-.8 1.7-.8.3-13 5.1-13.7 5.3-.7.3-1.4-.1-1.7-.8-.2-.7-5.3-14.7-5.9-16.2H26.1c-.6 1.6-5.7 15.6-5.9 16.2-.2.6-1 1.1-1.7.8-.7-.3-13-5-13.7-5.3-.7-.3-1-1.1-.8-1.7.9-2.4 24-65.6 25.2-68.9C31.4 7.2 34.4.7 43.4.7zM2.1 115.6c-.7 0-1.3.6-1.3 1.4v15c0 .8.6 1.3 1.3 1.3h82.6c.7 0 1.3-.6 1.3-1.3v-15c0-.7-.6-1.4-1.3-1.4H2.1m41.2-94L31.6 56.9h23.7L43.5 21.6h-.2zm176.4 57.9c-1.7.6-2.9.7-4.2.7-2.8 0-4.4-1.1-4.4-4 0-3 2-4 5.9-4 .9 0 1.9.1 2.3.3v2.1c0 2.4.1 3.9.4 4.9zm10 3.5c-2.1-3.2-2.6-5-2.6-9v-8.1c0-4.4-.5-5.9-1.7-7.5-1.6-2.2-4.3-3.2-9.2-3.2-3.5 0-6.8.4-10.1 1.2l1.2 5.7c2.2-.3 4.5-.6 6.1-.6 5.2 0 5.8.8 5.8 4.7v1.5c-1.2-.3-2.5-.5-4-.5-7.8 0-12 3.8-12 10.2 0 5.9 4.4 9.2 9.8 9.2 2 0 4.1-.4 5.8-1 1-.4 1.4-.7 2.7-1.5.8 1.1 2.4 2.3 3 2.5l5.2-3.6zm77.5-3.5c-1.7.6-2.9.7-4.2.7-2.8 0-4.4-1.1-4.4-4 0-3 2-4 5.9-4 .9 0 1.9.1 2.3.3v2.1c0 2.4.1 3.9.4 4.9zm10 3.5c-2.1-3.2-2.6-5-2.6-9v-8.1c0-4.4-.5-5.9-1.7-7.5-1.6-2.2-4.3-3.2-9.2-3.2-3.5 0-6.9.4-10.1 1.2l1.2 5.7c2.2-.3 4.5-.6 6.2-.6 5.2 0 5.8.8 5.8 4.7v1.5c-1.1-.3-2.4-.5-4-.5-7.9 0-12 3.8-12 10.2 0 5.9 4.4 9.2 9.8 9.2 2 0 4.1-.4 5.8-1 1-.4 1.4-.7 2.7-1.5.8 1.1 2.4 2.3 3 2.5l5.1-3.6zm61 2.8s-4.3-9.2-5.3-11.2c-1.2-2.3-2.3-4-4.7-4.5V70c1.6-.3 2.9-1.3 4.3-4.3 1.4-2.9 1.7-3.5 2.5-4.2.8-.7 1.8-.4 1.8-.4l.4-5.4c-1.1-.1-2.4-.2-3.7-.1-2.1.1-3.2.7-4.3 1.8-.8.8-1.4 2-2.1 3.4-.7 1.5-1.3 2.7-2.1 4.3-.7 1.6-1.1 2.3-3.2 2.3h-1.3V43.3h-7.9v42.5h7.9V73.6h1.1c2.3 0 2.6.6 3.8 2.9 1.4 2.8 4.1 9.3 4.1 9.3h8.7zm-220.9 0h9.1L152.6 44c-1.4-.5-3.2-.8-5.1-.8-2.1 0-2.8.3-4.4.8l-14.5 41.8h8.7s1.2-3.7 2.6-8.2h15c1.3 4.6 2.4 8.2 2.4 8.2zM142 70.6s2.5-8.4 2.9-9.7c1-3.4 2.5-8.7 2.5-8.7h.3s1.4 5.6 2.3 8.7c.3 1.2 2.7 9.7 2.7 9.7H142zm101.1-4.8c-2.8 0-5 2.3-5 5 0 2.8 2.2 5 5 5s5-2.2 5-5c0-2.7-2.2-5-5-5zm-66-22.5h-7.9v42.5h7.9V43.3zm156.2 18.6c4.3.1 4.9 1 4.9 4.6v19.2h7.8V65.9c0-4.4-.5-5.9-1.7-7.5-1.6-2.2-4.7-3.2-10.1-3.2-5.3 0-8.6.6-12.9 1.8v28.8h7.9V62.3c2.1-.3 2.4-.4 4.1-.4zM196.5 42.6c-4.9 0-7.6 1-9.2 3.2-1.2 1.6-1.7 3.2-1.7 7.5V57h-3.9v6.4h3.9v22.4h7.8V63.4h7.8V57h-7.8v-3.4c0-3.9.6-4.7 5.8-4.7.6 0 1.2 0 1.9.1l1.2-6.1c-1.9-.2-3.8-.3-5.8-.3zm62.6.4c2.7-.2 8.6-.4 12.4-.4h2.1c7.4 0 11.6 5.4 11.6 11.7 0 4.3-2 7.1-6.6 8.8 5.4 1.2 8.3 5.4 8.3 10.6 0 3.8-1.1 6.8-3.1 8.9-2.5 2.5-6.4 3.9-11.5 3.9-4.6 0-10.3-.1-13.2-.3V43zm12.4 6.9c-1.3 0-2.9 0-4.5.1v10.2h4.5c1.8 0 3.2-.5 4.2-1.5.9-.9 1.4-2.2 1.4-3.7 0-3.3-1.8-5.1-5-5.1h-.6zm.1 29.3h.4c4.1 0 6.6-2.2 6.6-6.6 0-1.6-.6-3-1.7-4.1-1.2-1.2-2.9-1.8-4.8-1.8H267v12.4c1.4.1 3 .1 4.6.1z"/>
</svg>
