<svg id="bbe8875a-f3e8-4818-af5b-b1d9831a6dfb" data-name="Layer 1" xmlns="http://www.w3.org/2000/svg" viewBox="0 0 250.42 250.42"><title>logo</title><path d="M172.14,183.52a3.22,3.22,0,0,1-2-1.16,36.36,36.36,0,0,1-7-12.07,48.21,48.21,0,0,1-2.86-11.09,43.82,43.82,0,0,0-4-2.93c-3-1.93-6.09-3.76-9.8-5.74-1.34.19-3.54.54-5.2.92a20.59,20.59,0,0,0-4.46,1.7,5.76,5.76,0,0,1-2.31.8,1.87,1.87,0,0,1-.59-.1,2.08,2.08,0,0,1-.81-.52c-1.08-1.08-1.91-3.8-2.28-5.81a23.26,23.26,0,0,1-.31-5.29,98.78,98.78,0,0,1-16.56-11.37c-1-.84-2-1.74-3-2.68a4.26,4.26,0,0,1-2.37,2.44,2.66,2.66,0,0,1-.79.12,3.37,3.37,0,0,1-2.39-1.15c-.09-.09-.19-.19-.29-.31-2-2.28-2.85-6.85-3.21-10.4C89.16,104.16,85.14,91.19,85.27,89.19A1.52,1.52,0,0,1,85.84,88a1.58,1.58,0,0,1,1-.35h.06a1.7,1.7,0,0,1,0-.44,1.58,1.58,0,0,1,.8-1,5.8,5.8,0,0,1,2.68-.58c4.44,0,11.18,3.5,16,6.44,1.05.63,2.15,1.33,3.31,2.08a1.35,1.35,0,0,1,.51.34c.54.35,1.07.72,1.61,1.09a1.32,1.32,0,0,1,.6.41c3.15,2.18,6.29,4.57,9.33,7.08a23.07,23.07,0,0,1,4.16-2.48,15.35,15.35,0,0,1,6.22-1.66,2.36,2.36,0,0,1,1.76.51,1.8,1.8,0,0,1,.32,1.76s0,.13-.05.2l0,0a2.33,2.33,0,0,1,1.24.94,2.08,2.08,0,0,1-.11,2h0a2.47,2.47,0,0,1,1.08,1.33,2.14,2.14,0,0,1-.36,1.58,2.62,2.62,0,0,1,.86,1,1.76,1.76,0,0,1-.16,1.72,2.56,2.56,0,0,1,.68.88,2.13,2.13,0,0,1-.16,1.75s0,0,0,0a2.82,2.82,0,0,1,.79,1.27,1.73,1.73,0,0,1-.36,1.44,1.88,1.88,0,0,1,.44.76,2,2,0,0,1-.36,1.61c0,.21.09.63.23,1.44,1.35,1.58,2.69,3.21,4,4.86,3.78-1.27,6.22-1.89,7.46-1.89a1.84,1.84,0,0,1,1.12.29,1.74,1.74,0,0,1,.22.18c.83.83.69,2.14.49,4.12a14.08,14.08,0,0,0,0,4.39,23.15,23.15,0,0,0,2,4.44c1.1,2.1,1.71,3.26,1.36,4.27a1.94,1.94,0,0,1-.53.81.53.53,0,0,1,.06.1c1.39,2,2.85,4,4.15,5.61s3,3.45,4.59,5.23c.95,1.06,1.83,2,2.63,3,2.35.14,5.94.43,10.28,1,6.39.84,11.67,3.22,12.7,4.26a1.4,1.4,0,0,1-1,2.45h0c-1.58,0-2.94.79-4.51,1.72-.66.39-1.4.83-2.19,1.21a12.83,12.83,0,0,1-5.62,1h-1.79a6.29,6.29,0,0,0-.73,0c.06.33.21.87.31,1.22a14.07,14.07,0,0,1,.67,6.23,29.07,29.07,0,0,0-.08,6.14c.13,1.92.21,3.07-.93,3.59A1.38,1.38,0,0,1,172.14,183.52Z" transform="translate(-11.96 -9.35)" fill="#fff"/><path d="M163.08,155.73s5.14.12,12.66,1.12,12.72,4,11.9,4c-2.72,0-4.78,1.87-7.28,3.07-3.48,1.67-7.75.34-8.64,1.23-1.11,1.12,1.33,3.88.73,8.3-.65,4.74.4,8.4-.25,8.7s-5-4.51-7.85-12.34c-3.39-9.2-2.86-13.37-2.86-13.37Z" transform="translate(-11.96 -9.35)" fill="#fff"/><path d="M186.9,160.4s-6.28-.63-6.58-.27.79,1.25.6,1.51c-.39.56-4.45-.47-4.62-.14s1.72,1.07,1.6,1.46-5.62-1.4-5.82-1,1.89,1,1.49,1.38-2.47,0-3,.52.39,2.3.12,2.73-1.14-.7-1.49-.35,2.47,4.79,2.16,5.1-2-2.45-2.41-2,2.57,5.78,2.21,6.06-2-2.49-2.68-2.12,3.66,8.73,3.66,8.73l-2.6-2.1-3-4.86-2.34-5.65-2.07-6.55-.71-4.52.6-1.73,2-1.22,4,.68,8.62,1,7.18,1.79Z" transform="translate(-11.96 -9.35)" fill="#d6d6d6"/><path d="M164,170c-3.4-9.19-2.92-13.4-2.89-13.58l0-.23,1.89-.86h.1s5.24.13,12.7,1.11c6.52.87,11.41,3.24,12.17,4a.5.5,0,0,1,.15.58.46.46,0,0,1-.47.29c-1.82,0-3.35.89-5,1.85-.68.4-1.38.82-2.12,1.17a13.46,13.46,0,0,1-6.23.94,5.11,5.11,0,0,0-2.29.22c-.32.32-.14,1,.2,2.21a13.41,13.41,0,0,1,.64,5.84,31.1,31.1,0,0,0-.09,6.34c.12,1.66.17,2.42-.39,2.68-.38.17-.86-.08-1.63-.84h0A35.12,35.12,0,0,1,164,170Zm8,9.95a30.2,30.2,0,0,1,.1-6.52,12.61,12.61,0,0,0-.62-5.49c-.38-1.31-.68-2.35,0-3,.5-.51,1.5-.49,2.9-.46a12.79,12.79,0,0,0,5.85-.86c.7-.34,1.39-.75,2-1.14a13,13,0,0,1,4.37-1.89,34.57,34.57,0,0,0-10.92-3.26c-6.86-.9-11.78-1.08-12.52-1.1l-1.27.57c0,1,0,5.16,2.86,13a34.33,34.33,0,0,0,6.6,11.42,4,4,0,0,0,.64.55A16.49,16.49,0,0,0,171.93,179.92Z" transform="translate(-11.96 -9.35)" fill="#909191"/><path d="M164.55,158.47c6.25-1.61,19,1.42,19.18,1.46h0c-.53-.16-12.91-4-19.39-2.28Z" transform="translate(-11.96 -9.35)" fill="#909191"/><path d="M165.63,159.17c5.84-.29,13.86,2.08,13.94,2.11h0c-.32-.13-7.95-3.26-14-2.95Z" transform="translate(-11.96 -9.35)" fill="#909191"/><path d="M166.65,160.25c3,.23,9.88,2.29,9.95,2.31h0c-.27-.11-6.77-2.92-9.89-3.15Z" transform="translate(-11.96 -9.35)" fill="#909191"/><path d="M167.77,162.31s2.93-.38,4.72.61h0a15.46,15.46,0,0,0-4.61-1.45Z" transform="translate(-11.96 -9.35)" fill="#909191"/><path d="M169.44,177.55h0c-.06-.11-5.86-11.93-5.68-18.37l-.85,0C162.73,165.84,169.16,177.07,169.44,177.55Z" transform="translate(-11.96 -9.35)" fill="#909191"/><path d="M169.84,173.2h0c-.05-.07-4.15-7.37-5.15-13.13l-.83.14C164.89,166.17,169.64,172.91,169.84,173.2Z" transform="translate(-11.96 -9.35)" fill="#909191"/><path d="M170.43,170h0c0-.06-3.58-6.34-4.46-9.19l-.81.25C166.08,164.06,170.25,169.78,170.43,170Z" transform="translate(-11.96 -9.35)" fill="#909191"/><path d="M170.27,166.18h0c-1.48-1.42-2-4.3-2-4.32l-.76.36A15.46,15.46,0,0,0,170.27,166.18Z" transform="translate(-11.96 -9.35)" fill="#909191"/><path d="M103,116.62s.35,8.7,3,11.77c3.25,3.7,4.64-4.08,4.64-4.08Z" transform="translate(-11.96 -9.35)" fill="#fff"/><path d="M110.14,124.6a12.65,12.65,0,0,1-.29,1.33h0a.09.09,0,0,0,0,0c-.13.41-.28.83-.44,1.22-.31.65-.69,1.14-1.16,1.24s-1.12-.26-1.87-1.09a12.43,12.43,0,0,1-2-3.31,39.3,39.3,0,0,1-1-6.14Z" transform="translate(-11.96 -9.35)" fill="#d6d6d6"/><path d="M105.74,128.67c-2.77-3.15-3.14-11.67-3.15-12l0-1.09,8.61,8.61,0,.22c-.08.48-.9,4.73-2.88,5.35a2.19,2.19,0,0,1-2.24-.79A3.32,3.32,0,0,1,105.74,128.67Zm-2.23-11c.19,2.42.85,8.12,2.86,10.41.61.68,1.15.95,1.61.81,1.08-.34,1.93-2.84,2.26-4.48Z" transform="translate(-11.96 -9.35)" fill="#909191"/><path d="M107,126.85a28.31,28.31,0,0,1-1-3.74,26,26,0,0,1-.35-3.89l-.85,0A18.24,18.24,0,0,0,107,126.85Z" transform="translate(-11.96 -9.35)" fill="#909191"/><path d="M108.45,126.43a55.23,55.23,0,0,1-.8-6.9l-.85,0A22.2,22.2,0,0,0,108.45,126.43Z" transform="translate(-11.96 -9.35)" fill="#909191"/><path d="M132,140.38a23.94,23.94,0,0,0,.11,6.89c.5,2.62,1.48,5,2.2,5.3s3-1.58,6.62-2.43c2.75-.64,6.76-1.15,6.76-1.15Z" transform="translate(-11.96 -9.35)" fill="#fff"/><path d="M146,149.23l-3.22.41s-1.43-1.32-2-1.27,0,1.67-.41,1.82-1.7-2.65-2.19-2.53,0,3.37-.51,3.58-1.44-3-1.93-2.83-.24,3.86-.24,3.86l-1.25.26-.79-1-.81-2.08-.73-2.62-.26-3.05.23-2.32,5.68,3,5.31,2.66,3.52,1.7Z" transform="translate(-11.96 -9.35)" fill="#d6d6d6"/><path d="M131.68,147.35a23.75,23.75,0,0,1-.12-7l.08-.61L149,149.25l-1.29.16s-4,.51-6.73,1.14a20.84,20.84,0,0,0-4.65,1.77c-1.06.51-1.7.82-2.19.65a1.14,1.14,0,0,1-.46-.3C133,151.93,132.13,149.74,131.68,147.35Zm2.75,4.82a5.45,5.45,0,0,0,1.55-.62,22.08,22.08,0,0,1,4.83-1.82c1.79-.42,4.12-.78,5.53-1l-14-7.7a23.24,23.24,0,0,0,.19,6.14,11.83,11.83,0,0,0,1.79,4.88.46.46,0,0,0,.13.1Z" transform="translate(-11.96 -9.35)" fill="#909191"/><path d="M134.84,150.13s-.62-9.89-.62-9.94l-.84,0A32.38,32.38,0,0,0,134.84,150.13Z" transform="translate(-11.96 -9.35)" fill="#909191"/><path d="M137.09,149.23a47.13,47.13,0,0,1-.14-7.43l-.84-.07A21.46,21.46,0,0,0,137.09,149.23Z" transform="translate(-11.96 -9.35)" fill="#909191"/><path d="M139.94,149a17.36,17.36,0,0,1-.25-5.7l-.84-.1A8.94,8.94,0,0,0,139.94,149Z" transform="translate(-11.96 -9.35)" fill="#909191"/><path d="M142,148.56a14,14,0,0,1,.15-3.59l-.83-.18A5.88,5.88,0,0,0,142,148.56Z" transform="translate(-11.96 -9.35)" fill="#909191"/><path d="M120.14,106.29a22.07,22.07,0,0,1,6.4-4.51c3.92-1.8,6.3-1.59,6.46-1.42s-.31,1-.09,1.64,1.22.63,1.43,1-.47,1.09-.44,1.63,1.17,1,1.26,1.35-.74,1.19-.65,1.59,1.07.82,1.25,1.22-.65,1-.62,1.33,1,.85,1.11,1.21-.39,1-.39,1.38.91,1.08,1,1.46-.84.92-.82,1.26.83.68.91,1-.37.7-.42,1,.81,4.82.81,4.82Z" transform="translate(-11.96 -9.35)" fill="#fff"/><path d="M132.92,100.48s-3,.78-2.84,1.36,2.23.5,2.39,1.08-1.95,1.35-1.79,2,2.59.38,2.85,1.07-1.9,1.34-1.67,1.93,2.21.48,2.41,1.07-2.53,1.31-2.31,1.9,2.36.1,2.59.82-1.8,1.54-1.57,2,1.4.29,2.2.27.85,1.47.85,1.47l.85,1.41-.31,1.15.05,1.08-1.9-1.8-3.35-3.35-3.83-3.83-5-4.51-.67-.67,2.6-2.17,4.39-1.83,3.44-.79Z" transform="translate(-11.96 -9.35)" fill="#d6d6d6"/><path d="M119.83,106a22.35,22.35,0,0,1,6.54-4.6c3.72-1.71,6.49-1.78,6.94-1.33h0c.21.23.14.54.06.9a2,2,0,0,0-.06.89c.06.16.34.28.61.39a1.54,1.54,0,0,1,.79.54c.22.39,0,.82-.17,1.21a1.75,1.75,0,0,0-.22.61.37.37,0,0,0,.11.15,4.31,4.31,0,0,0,.43.34,1.74,1.74,0,0,1,.72.79,1.61,1.61,0,0,1-.38,1.1,3.12,3.12,0,0,0-.27.49l.06.06a3.89,3.89,0,0,0,.41.34,2.24,2.24,0,0,1,.74.73c.22.45-.13.9-.37,1.23-.06.07-.13.17-.18.24a4.64,4.64,0,0,0,.37.34,2.47,2.47,0,0,1,.68.75,1.41,1.41,0,0,1-.19,1.11,1.88,1.88,0,0,0-.17.41,2.43,2.43,0,0,0,.42.55,2.24,2.24,0,0,1,.57.84c.09.42-.25.77-.55,1.07l-.23.25h0l.27.22a1.49,1.49,0,0,1,.59.68,1.16,1.16,0,0,1-.26.91,1.6,1.6,0,0,0-.15.27c0,.32.47,2.94.8,4.7l.25,1.27-18.45-17.15Zm16.27,11.39a1.65,1.65,0,0,1,.27-.62l.14-.24s0,0,0,0-.16-.14-.26-.21a2.43,2.43,0,0,1-.34-.3.83.83,0,0,1-.29-.55c0-.34.23-.61.51-.89a2.19,2.19,0,0,0,.29-.34,3.67,3.67,0,0,0-.34-.41,1.87,1.87,0,0,1-.64-1.1,2,2,0,0,1,.25-.79,2.1,2.1,0,0,0,.18-.43.57.57,0,0,0-.12-.13,3.28,3.28,0,0,0-.33-.3l-.36-.32a1,1,0,0,1-.33-.58,1.23,1.23,0,0,1,.37-.83,1.81,1.81,0,0,0,.26-.4s0,0,0-.05-.26-.21-.41-.32a5.43,5.43,0,0,1-.51-.42.92.92,0,0,1-.29-.48,1.59,1.59,0,0,1,.38-1.12,3.72,3.72,0,0,0,.26-.46,4.61,4.61,0,0,0-.38-.3,5.43,5.43,0,0,1-.53-.42,1.11,1.11,0,0,1-.36-.71,2.16,2.16,0,0,1,.3-1,3.36,3.36,0,0,0,.18-.43,2.3,2.3,0,0,0-.35-.17,2.42,2.42,0,0,1-.82-.47,1.06,1.06,0,0,1-.26-.41,2.43,2.43,0,0,1,0-1.37.44.44,0,0,1,0-.1,13.07,13.07,0,0,0-5.85,1.49,22,22,0,0,0-6,4.11l15.92,14.8A31.83,31.83,0,0,1,136.1,117.39Z" transform="translate(-11.96 -9.35)" fill="#909191"/><path d="M121.84,108.37l.65.54a18.94,18.94,0,0,1,9-5.7A15,15,0,0,0,121.84,108.37Z" transform="translate(-11.96 -9.35)" fill="#909191"/><path d="M124.94,110l.66.52c2.5-3.17,7-4.39,7-4.39C132.41,106.15,127.67,106.54,124.94,110Z" transform="translate(-11.96 -9.35)" fill="#909191"/><path d="M127.27,111.83l.66.53a11.12,11.12,0,0,1,5.2-3.19A8.1,8.1,0,0,0,127.27,111.83Z" transform="translate(-11.96 -9.35)" fill="#909191"/><path d="M129.36,113.9l.64.55a14.2,14.2,0,0,1,3.6-2.56C133.48,111.91,130.68,112.35,129.36,113.9Z" transform="translate(-11.96 -9.35)" fill="#909191"/><path d="M131.55,115.72l.62.57a24.65,24.65,0,0,1,2.1-1.9A5.24,5.24,0,0,0,131.55,115.72Z" transform="translate(-11.96 -9.35)" fill="#909191"/><path d="M139.61,126.3s9.45-3.41,10.32-2.81-.59,5.19.14,7.93c.81,3,3.71,7,3.38,7.93-.44,1.26-3.63-.38-3.63-.38Z" transform="translate(-11.96 -9.35)" fill="#fff"/><path d="M146.71,124.19s2,.44,2.22,1-2.37,1-2.21,1.55,2.07.44,2.12.88-1.76,1.13-1.64,1.51,1.47.26,1.64.67-1,1-.85,1.51,1.39.45,1.56.78-.92,1-.61,1.46,1.42.5,1.65.94-.3,1-.1,1.45,1.09.48,1.42,1a9.22,9.22,0,0,1,.2,2.85l-2-2.54-4.22-5.66-3.4-4.92-1-1.2Z" transform="translate(-11.96 -9.35)" fill="#d6d6d6"/><path d="M138.91,126.1l.56-.2c3.6-1.3,9.79-3.39,10.7-2.75a.44.44,0,0,1,.11.09c.48.48.4,1.48.2,3.36a14.93,14.93,0,0,0,0,4.72,24.34,24.34,0,0,0,2.07,4.63c1,1.91,1.51,2.93,1.3,3.54a1.07,1.07,0,0,1-.63.65c-1.1.44-3.18-.58-3.59-.79l-.08,0Zm1.4.39,9.79,12.14c.87.44,2.27.94,2.81.72a.2.2,0,0,0,.14-.14,10.56,10.56,0,0,0-1.25-2.86,25.69,25.69,0,0,1-2.14-4.81,15.14,15.14,0,0,1,0-5,7.9,7.9,0,0,0,.05-2.65C149,123.67,144.48,125,140.31,126.49Z" transform="translate(-11.96 -9.35)" fill="#909191"/><path d="M141.23,128.35a34.07,34.07,0,0,1,6.8-3h0c-.19,0-4.72.6-7.26,2.28Z" transform="translate(-11.96 -9.35)" fill="#909191"/><path d="M141,130.77a34.34,34.34,0,0,1,6.79-3h0c-.19,0-4.71.61-7.26,2.29Z" transform="translate(-11.96 -9.35)" fill="#909191"/><path d="M141.35,132.92a35.69,35.69,0,0,1,6.8-3c-.2,0-4.72.61-7.26,2.29Z" transform="translate(-11.96 -9.35)" fill="#909191"/><path d="M142.32,135.14a35.41,35.41,0,0,1,6.79-3c-.19,0-4.71.61-7.26,2.28Z" transform="translate(-11.96 -9.35)" fill="#909191"/><path d="M143.42,137.46a35.4,35.4,0,0,1,6.8-3c-.19,0-4.72.61-7.27,2.29Z" transform="translate(-11.96 -9.35)" fill="#909191"/><path d="M144.87,140a35.69,35.69,0,0,1,6.8-3c-.19,0-4.72.61-7.26,2.29Z" transform="translate(-11.96 -9.35)" fill="#909191"/><path d="M157,155.14c-15.05-9.79-27.33-12.67-42.18-25.31C91.85,110.32,85.92,89.67,86.67,89.08s3.58,3.86,4,3.19c.61-1.07-3.14-4.43-2.26-4.9,5.78-3,28.36,11.09,43,26.3,12.75,13.25,20.64,26.92,26,33.49,4.88,6,14,14.53,12,16.49S164.73,160.19,157,155.14Z" transform="translate(-11.96 -9.35)" fill="#fff"/><path d="M90.59,92.75a15,15,0,0,0,1,4.61c1,2.78,3.21,6.3,13.2,10s23.78,18.55,30.62,25,18,15.05,22.28,19.2,11.63,12.18,12,11.71c1-1.22-6.61-9.22-6.61-9.22L157,146.63l-3.88-5.18-4.79-7-5.52-7.32-6.06-7.43-5.84-6.52-7.35-7-9-7-4.13-3.2L103.68,92l-9.31-4.29L89.5,87l-1.12.34L88.89,89l1.62,2.25Z" transform="translate(-11.96 -9.35)" fill="#d6d6d6"/><path d="M91.13,91.93s.19,4.49.87,4.83a.67.67,0,0,0,.82-.08l-1.07.66-.51-1.73Z" transform="translate(-11.96 -9.35)" fill="#fff"/><path d="M91.33,97.63a.92.92,0,0,0,.64.28,1,1,0,0,0,.79-.33c.89-.9.8-3.6.78-4.13,0,0-.59,3.87-1.54,3.61-.69-.18-.52-1.9-.58-2.81a8.81,8.81,0,0,0-.53-3l-.75.4a8.34,8.34,0,0,1,.43,2.71C90.67,95.72,90.76,97.07,91.33,97.63Z" transform="translate(-11.96 -9.35)" fill="#909191"/><path d="M95.9,92.42a2.06,2.06,0,1,0,2.91,0A2,2,0,0,0,95.9,92.42Z" transform="translate(-11.96 -9.35)" fill="#fff"/><path d="M95.76,92.28a2.26,2.26,0,1,1,0,3.19A2.26,2.26,0,0,1,95.76,92.28Zm.28.28a1.86,1.86,0,1,0,2.63,0A1.85,1.85,0,0,0,96,92.56Z" transform="translate(-11.96 -9.35)" fill="#909191"/><path d="M97.22,92.67a.41.41,0,0,0,.7.31.42.42,0,0,0,.09-.14l.21.17a1.22,1.22,0,0,1-1.73,1.73,1.24,1.24,0,0,1,0-1.73A1.27,1.27,0,0,1,97.22,92.67Z" transform="translate(-11.96 -9.35)" fill="#1a1a1a"/><path d="M96.54,100.52c0,.08.33,2.11,1.94,2.14,1.36,0,2.73-1.14,4.07-3.49h0a5,5,0,0,1-4,2.8c-1.21,0-2-1.43-2-1.45Z" transform="translate(-11.96 -9.35)" fill="#909191"/><path d="M95.18,104.08c.54,1.22,1.07,2.3,2.62,2.49,1,.12,2-.57,2.9-2,0,0-1.31,1.71-2.8,1.53-2.14-.26-2.67-3-3-4.08A5,5,0,0,0,95.18,104.08Z" transform="translate(-11.96 -9.35)" fill="#909191"/><path d="M95.51,103.29a3.73,3.73,0,0,0,2.71,1.54h0A4.37,4.37,0,0,1,95.16,102h0A2.83,2.83,0,0,0,95.51,103.29Z" transform="translate(-11.96 -9.35)" fill="#909191"/><path d="M96.93,102.52a3.69,3.69,0,0,0,2.94,1h0a4.3,4.3,0,0,1-3.52-2.26h0A2.78,2.78,0,0,0,96.93,102.52Z" transform="translate(-11.96 -9.35)" fill="#909191"/><path d="M96.46,103.15a3.71,3.71,0,0,0,2.94,1h0a4.34,4.34,0,0,1-3.53-2.26h0A2.77,2.77,0,0,0,96.46,103.15Z" transform="translate(-11.96 -9.35)" fill="#909191"/><path d="M102.52,105.09a5.21,5.21,0,0,0,3.12,1.27.42.42,0,1,0,.11-.84c-1.23-.16-2.77-.6-3.09-1.8s.61-2.75,1.69-3.6c3-2.34,2.07-6.47,2-6.65a.42.42,0,0,0-.51-.31.41.41,0,0,0-.31.51s.85,3.78-1.73,5.78c-1.28,1-2.42,2.92-2,4.49A2.55,2.55,0,0,0,102.52,105.09Z" transform="translate(-11.96 -9.35)" fill="#909191"/><path d="M106.74,101a.41.41,0,0,0,.55,0c1.62-1.24,2-2,1.78-3.18a2.06,2.06,0,0,1,.34-1.16,1.71,1.71,0,0,0,.28-1.48.42.42,0,0,0-.55-.22.43.43,0,0,0-.23.56c.06.13-.12.48-.25.76a2.69,2.69,0,0,0-.42,1.7c.14.71.13,1.13-1.46,2.35a.44.44,0,0,0-.08.6Z" transform="translate(-11.96 -9.35)" fill="#1a83a0"/><path d="M109.06,111.49a.42.42,0,0,0,.6,0,.41.41,0,0,0,0-.59c-2.48-2.5-1.17-4.21.22-6,.32-.42.64-.84.91-1.27,2.63-4.19,1.08-6.9,1-7a.42.42,0,1,0-.73.43c0,.09,1.33,2.4-1,6.13-.24.39-.55.79-.86,1.2-1.41,1.83-3.15,4.11-.15,7.13Z" transform="translate(-11.96 -9.35)" fill="#909191"/><path d="M111.63,108.62l0,0a.42.42,0,0,0,.59-.06,5.36,5.36,0,0,0,1-3.11,5.88,5.88,0,0,1,.34-1.8,21.72,21.72,0,0,1,2.31-3.59.42.42,0,0,0-.66-.52,21.54,21.54,0,0,0-2.43,3.78,6.55,6.55,0,0,0-.4,2.05,4.65,4.65,0,0,1-.79,2.66A.42.42,0,0,0,111.63,108.62Z" transform="translate(-11.96 -9.35)" fill="#909191"/><path d="M114.65,110l0,0a.44.44,0,0,0,.6,0c1.79-2.06,2.39-2.76,2.09-4.46a4.83,4.83,0,0,1,.64-3.68.42.42,0,0,0-.66-.53,5.6,5.6,0,0,0-.81,4.35c.21,1.24,0,1.59-1.9,3.76A.42.42,0,0,0,114.65,110Z" transform="translate(-11.96 -9.35)" fill="#909191"/><path d="M118.94,107.23a.56.56,0,0,0,.15.1.42.42,0,0,0,.54-.25,3.7,3.7,0,0,1,1.87-2.28.42.42,0,0,0,.25-.54.42.42,0,0,0-.54-.26,4.51,4.51,0,0,0-2.37,2.78A.43.43,0,0,0,118.94,107.23Z" transform="translate(-11.96 -9.35)" fill="#1a83a0"/><path d="M117.65,113.43h0a.42.42,0,0,0,.6,0,5.14,5.14,0,0,0,1.2-2.49,4.37,4.37,0,0,1,.46-1.27c.23-.38.67-.41,1.37-.41a2.71,2.71,0,0,0,1.83-.46,2.67,2.67,0,0,0,.63-2.65.41.41,0,0,0-.52-.29.42.42,0,0,0-.29.52s.33,1.19-.36,1.77a2,2,0,0,1-1.3.26,2.18,2.18,0,0,0-2.09.83,5.16,5.16,0,0,0-.55,1.5,4.32,4.32,0,0,1-1,2.13A.42.42,0,0,0,117.65,113.43Z" transform="translate(-11.96 -9.35)" fill="#909191"/><path d="M121.11,114.69a.43.43,0,0,0,.2.11.43.43,0,0,0,.51-.31,6.66,6.66,0,0,1,2-3.19c1.42-1.13,4.08-.47,4.1-.47a.42.42,0,1,0,.21-.82c-.12,0-3.09-.77-4.84.64a7.32,7.32,0,0,0-2.27,3.64A.43.43,0,0,0,121.11,114.69Z" transform="translate(-11.96 -9.35)" fill="#909191"/><path d="M124.46,118.09a.42.42,0,0,0,.72-.32,3.22,3.22,0,0,1,1-2.44,2.56,2.56,0,0,1,1.85-.34,4.86,4.86,0,0,0,3.49-.88.42.42,0,1,0-.52-.66,4.08,4.08,0,0,1-2.94.7,3.27,3.27,0,0,0-2.43.53,4.06,4.06,0,0,0-1.33,3.14A.38.38,0,0,0,124.46,118.09Z" transform="translate(-11.96 -9.35)" fill="#909191"/><path d="M130,123.92h0a.42.42,0,0,0,.6,0,3.44,3.44,0,0,0,1.11-3,1.58,1.58,0,0,1,.4-1.45,4.72,4.72,0,0,1,3.1-1,.42.42,0,0,0,.44-.41.42.42,0,0,0-.4-.44,5.56,5.56,0,0,0-3.73,1.28,2.4,2.4,0,0,0-.66,2.09,2.63,2.63,0,0,1-.86,2.39A.42.42,0,0,0,130,123.92Z" transform="translate(-11.96 -9.35)" fill="#909191"/><path d="M126.59,120.78a.1.1,0,0,0,.06,0,.43.43,0,0,0,.59-.11,3.68,3.68,0,0,1,2.18-1.53,2.3,2.3,0,0,1,1.83.67.42.42,0,0,0,.6,0,.4.4,0,0,0,0-.59,3.1,3.1,0,0,0-2.5-.88,4.59,4.59,0,0,0-2.78,1.89A.44.44,0,0,0,126.59,120.78Z" transform="translate(-11.96 -9.35)" fill="#909191"/><path d="M131.36,124.46a.41.41,0,0,0,.56,0c.92-.74,1.87-.52,2.89-.29a5.35,5.35,0,0,0,1.55.21c1.58-.1,2.54-2.23,2.58-2.32a.42.42,0,0,0-.77-.35c-.22.49-1,1.77-1.87,1.82a4.66,4.66,0,0,1-1.31-.18,3.85,3.85,0,0,0-3.59.45.42.42,0,0,0-.07.6Z" transform="translate(-11.96 -9.35)" fill="#909191"/><path d="M134,128.26l0,0a.42.42,0,0,0,.59-.06,2.34,2.34,0,0,1,2.29-1.07,8.21,8.21,0,0,0,.95,0,6.79,6.79,0,0,0,3.44-1.7.42.42,0,0,0,0-.6.43.43,0,0,0-.6,0,6.09,6.09,0,0,1-2.94,1.48c-.33,0-.61,0-.89,0a3.1,3.1,0,0,0-2.93,1.37A.43.43,0,0,0,134,128.26Z" transform="translate(-11.96 -9.35)" fill="#909191"/><path d="M135.67,132a.1.1,0,0,0,.05,0,.42.42,0,0,0,.59-.09,2.23,2.23,0,0,1,2.66-1,4.73,4.73,0,0,0,1.77,0c2-.41,2.86-2.75,2.9-2.85a.43.43,0,0,0-.25-.55.42.42,0,0,0-.54.25s-.77,2-2.28,2.32a4.26,4.26,0,0,1-1.47,0,3.06,3.06,0,0,0-3.48,1.39A.43.43,0,0,0,135.67,132Z" transform="translate(-11.96 -9.35)" fill="#909191"/><path d="M142.56,136.2a.42.42,0,0,0,.59,0,3.48,3.48,0,0,0,1.29-3.23,2,2,0,0,1,0-.7,3.59,3.59,0,0,1,1.16-1.34.42.42,0,1,0-.49-.69,4.42,4.42,0,0,0-1.46,1.74,2.63,2.63,0,0,0-.08,1,2.7,2.7,0,0,1-1,2.55.42.42,0,0,0,0,.6Z" transform="translate(-11.96 -9.35)" fill="#909191"/><path d="M140,134.2l.07.06a.41.41,0,0,0,.58-.13c.31-.47,1.3-1.75,2.25-1.91a1.1,1.1,0,0,1,.89.25.44.44,0,0,0,.6-.07.42.42,0,0,0-.07-.59,1.88,1.88,0,0,0-1.56-.42c-1.52.25-2.77,2.21-2.82,2.29A.41.41,0,0,0,140,134.2Z" transform="translate(-11.96 -9.35)" fill="#909191"/><path d="M106.86,106.79c.58-.69,4.65,1.23,7.54,3.72s9.91,11,7.66,9.36c-4.38-3.17-10.88-2.57-13.44-5.14C106.45,112.54,106.27,107.47,106.86,106.79Z" transform="translate(-11.96 -9.35)" fill="#fff"/><path d="M103.17,93.51l-.27-2s3.57,1.95,10.16,6.44,12.55,10.17,15.36,12.55S139.53,122.8,141,124.69s5,6.88,7.2,9.67a37.77,37.77,0,0,1,2.9,4.11L144.77,132,130.6,117.37l-12.52-11L108.74,101Z" transform="translate(-11.96 -9.35)" fill="#22bbe6"/><path d="M103.17,93.51l-.27-2s3.57,1.95,10.16,6.44,12.55,10.17,15.36,12.55S139.53,122.8,141,124.69s5,6.88,7.2,9.67a37.77,37.77,0,0,1,2.9,4.11L144.77,132,130.6,117.37l-12.52-11L108.74,101Z" transform="translate(-11.96 -9.35)" fill="#d6d6d6"/><path d="M144.13,139.15a.42.42,0,0,0,.58,0c1.8-1.61,1.73-2.57,1.68-3.34a2.25,2.25,0,0,1,0-.58,4.29,4.29,0,0,1,1.05-1.83.44.44,0,0,0,0-.6.43.43,0,0,0-.6,0,5.48,5.48,0,0,0-1.27,2.29,3.24,3.24,0,0,0,0,.76c.05.68.09,1.32-1.39,2.65a.43.43,0,0,0,0,.6Z" transform="translate(-11.96 -9.35)" fill="#909191"/><path d="M146.24,140.83a.42.42,0,0,0,.57,0,7.24,7.24,0,0,0,1.92-2.27,3.37,3.37,0,0,1,.19-.32,3.92,3.92,0,0,0,.29-2.87.42.42,0,1,0-.81.25,3.08,3.08,0,0,1-.21,2.18l-.19.34a6.52,6.52,0,0,1-1.73,2,.43.43,0,0,0-.05.6Z" transform="translate(-11.96 -9.35)" fill="#909191"/><path d="M121.84,119.36s-5-4.41-5.36-4.15.86,1.23.57,1.4-2.9-2.33-3.24-2.07,1.2,1.35.87,1.61-3.74-2.52-4-2.11,1.9,1.42,1.69,1.7c-.47.65-2.61-.19-2.61-.19l-1.44-1.15-1.37-2.64-.38-2.07-.06-2.12.55-1h1l2.33,1.16,3.1,2.09,2.14,1.79,3.72,4Z" transform="translate(-11.96 -9.35)" fill="#d6d6d6"/><path d="M148.81,142.26a.41.41,0,0,0,.11.07.42.42,0,0,0,.57-.18,7.05,7.05,0,0,1,2.17-2.66.42.42,0,0,0-.44-.72,7.82,7.82,0,0,0-2.49,3A.46.46,0,0,0,148.81,142.26Z" transform="translate(-11.96 -9.35)" fill="#909191"/><path d="M150.52,144a.41.41,0,0,0,.51.07,9.22,9.22,0,0,0,2.42-2.41.42.42,0,0,0-.11-.59.43.43,0,0,0-.59.11,8.78,8.78,0,0,1-2.15,2.16.43.43,0,0,0-.15.58Z" transform="translate(-11.96 -9.35)" fill="#909191"/><path d="M152.57,145.32a.42.42,0,0,0,.5.07c1.5-.76,1.73-1.71,1.75-1.82a.42.42,0,1,0-.82-.18s-.2.68-1.32,1.25a.43.43,0,0,0-.18.57Z" transform="translate(-11.96 -9.35)" fill="#909191"/><path d="M154.51,147.25a.41.41,0,0,0,.46.09c1.33-.55,1.45-1.44,1.46-1.54a.43.43,0,0,0-.39-.46.43.43,0,0,0-.46.37s-.1.51-.93.85a.43.43,0,0,0-.23.56A.38.38,0,0,0,154.51,147.25Z" transform="translate(-11.96 -9.35)" fill="#909191"/><path d="M156.5,149.24a.41.41,0,0,0,.46.09c1.3-.54,1.43-1.25,1.44-1.39a.42.42,0,0,0-.38-.46.43.43,0,0,0-.46.36s-.14.38-.92.71a.43.43,0,0,0-.14.69Z" transform="translate(-11.96 -9.35)" fill="#909191"/><path d="M158.31,151.67a.43.43,0,0,0,.47.09c1.32-.55,1.44-1.45,1.45-1.55a.43.43,0,0,0-.39-.46.42.42,0,0,0-.45.38s-.11.5-.94.85a.43.43,0,0,0-.14.69Z" transform="translate(-11.96 -9.35)" fill="#909191"/><path d="M108.32,115c-2.28-2.29-2.53-7.63-1.79-8.52a.89.89,0,0,1,.64-.28c1.39-.11,5,1.78,7.51,4,.33.29.73.66,1.17,1.1,1.34,1.34,3.12,3.34,4.66,5.21,2.73,3.33,2.54,3.55,2.29,3.84s-.79,0-1-.12c-2.17-1.58-5-2.21-7.41-2.77s-4.73-1.07-6.07-2.41Zm6.93-3.14c-.43-.43-.81-.78-1.12-1.06-2.81-2.42-6.35-4-7-3.75-.39.63-.25,5.34,1.75,7.35l-.29.31.3-.3c1.17,1.17,3.25,1.64,5.66,2.19a23.9,23.9,0,0,1,6.72,2.26A73.91,73.91,0,0,0,115.25,111.89Z" transform="translate(-11.96 -9.35)" fill="#909191"/><path d="M106.64,108.23a36,36,0,0,1,6.33,3.43,50.3,50.3,0,0,1,6,5.06c-6.61-7.76-11.89-9.25-12.13-9.31Z" transform="translate(-11.96 -9.35)" fill="#909191"/><path d="M106.49,109.88s1.62.64,3.64,1.71a51.12,51.12,0,0,1,5.06,3.16,26.35,26.35,0,0,0-8.44-5.67Z" transform="translate(-11.96 -9.35)" fill="#909191"/><path d="M106.93,111.94a16,16,0,0,1,2.45.71,24.58,24.58,0,0,1,3.69,2.18c-.15-.12-3.58-3.09-5.92-3.71Z" transform="translate(-11.96 -9.35)" fill="#909191"/><path d="M107.63,113.74a2.23,2.23,0,0,1,1.19,0,8.49,8.49,0,0,1,1.73.79,8.18,8.18,0,0,0-2.63-1.62Z" transform="translate(-11.96 -9.35)" fill="#909191"/><path d="M106.51,101.4c.16-4.78-5.31-8.43-5.18-8.86s10.31,4.63,26.37,19.85S159.53,150,159.53,150s-7.27-11.59-28.8-31.54S106.46,103,106.51,101.4Z" transform="translate(-11.96 -9.35)" fill="#909191"/><path d="M87.46,89.84c1.32,4.81,7.16,18.69,21.13,32.66h0c2.08,2.07,4.29,4.11,6.56,6,9,7.62,16.88,11.63,25.26,15.87a172.06,172.06,0,0,1,16.88,9.4A57.6,57.6,0,0,1,165,160c1.95,1.79,3.58,3.34,4.31,3.24a.5.5,0,0,1-.16.36c-.72.73-2.36-.81-4.76-3a56,56,0,0,0-7.7-6.16,173.12,173.12,0,0,0-16.87-9.4c-8.39-4.24-16.31-8.25-25.26-15.87-2.28-1.94-4.49-4-6.57-6.06h0C92.18,107.29,86.73,91.82,86.53,89.2c.13.09.36,0,.64.33Z" transform="translate(-11.96 -9.35)" fill="#fff"/><path d="M86.19,89.25a.67.67,0,0,1,.22-.5c.62-.48,1.43.33,1.82.72s.7.74,1,1.14.67.75.92,1A12.94,12.94,0,0,0,89,89.74c-.82-1.12-1.27-1.78-1.15-2.3a.66.66,0,0,1,.34-.44C92,85,101,89.8,106,92.83a135.9,135.9,0,0,1,24.25,19.06l1.45,1.48c8.7,9,15.27,18.46,20.06,25.34,2.28,3.27,4.25,6.1,5.95,8.19,1.33,1.62,3,3.48,4.63,5.28,5.65,6.26,9,10.18,7.38,11.77-1.33,1.32-2.85-.08-5.38-2.39a56.12,56.12,0,0,0-7.59-6.07,169.19,169.19,0,0,0-16.8-9.35c-8.43-4.27-16.39-8.3-25.42-16-2.3-2-4.52-4-6.62-6.1h0C91.29,107.45,86.06,91.43,86.19,89.25Zm2.49-1.55a9.51,9.51,0,0,0,1,1.54c.92,1.26,1.79,2.45,1.33,3.24a.54.54,0,0,1-.41.27c-.33,0-.65-.19-1-.6s-.58-.62-.9-1-.69-.78-1-1.1a4.41,4.41,0,0,0-.6-.52c.2,2.62,5.65,18.09,21.46,33.9h0c2.08,2.08,4.29,4.11,6.56,6,9,7.62,16.88,11.63,25.26,15.87a172.06,172.06,0,0,1,16.88,9.4,56,56,0,0,1,7.7,6.16c2.4,2.19,3.48,3.13,4.21,2.41,1.14-1.14-3.8-6.61-7.41-10.61-1.63-1.8-3.31-3.66-4.65-5.31-1.72-2.11-3.7-5-6-8.24-4.77-6.85-11.32-16.23-20-25.23-.47-.49-1-1-1.44-1.47C115,97.84,94.05,85.19,88.68,87.7Z" transform="translate(-11.96 -9.35)" fill="#909191"/><path d="M111.26,155.73s-5.14.12-12.66,1.12-12.72,4-11.9,4c2.72,0,4.78,1.87,7.28,3.07,3.48,1.67,7.74.34,8.64,1.23,1.1,1.12-1.33,3.88-.73,8.3.65,4.74-.4,8.4.25,8.7s5-4.51,7.84-12.34c3.4-9.2,2.87-13.37,2.87-13.37Z" transform="translate(-11.96 -9.35)" fill="#fff"/><path d="M87.43,160.4s6.29-.63,6.59-.27-.79,1.25-.6,1.51c.39.56,4.45-.47,4.62-.14s-1.72,1.07-1.6,1.46,5.61-1.4,5.81-1-1.88,1-1.48,1.38,2.47,0,3,.52-.39,2.3-.12,2.73,1.14-.7,1.49-.35-2.47,4.79-2.16,5.1,2-2.45,2.41-2-2.57,5.78-2.21,6.06,2-2.49,2.68-2.12-3.67,8.73-3.67,8.73l2.61-2.1,3-4.86,2.34-5.65,2.06-6.55.72-4.52-.61-1.73-2-1.22-4,.68-8.62,1-7.17,1.79Z" transform="translate(-11.96 -9.35)" fill="#d6d6d6"/><path d="M103.59,181.7h0c-.77.76-1.26,1-1.63.84-.56-.26-.51-1-.4-2.68a30.29,30.29,0,0,0-.08-6.34,13.26,13.26,0,0,1,.64-5.84c.34-1.2.52-1.89.19-2.21a5.07,5.07,0,0,0-2.29-.22,13.44,13.44,0,0,1-6.22-.94c-.74-.35-1.45-.77-2.13-1.17-1.62-1-3.16-1.86-5-1.85a.46.46,0,0,1-.47-.29.5.5,0,0,1,.15-.58c.76-.76,5.65-3.13,12.16-4,7.46-1,12.66-1.11,12.71-1.11h.1l1.89.86,0,.23c0,.18.5,4.39-2.89,13.58A35.12,35.12,0,0,1,103.59,181.7Zm-1.24,0a4,4,0,0,0,.64-.55,34.33,34.33,0,0,0,6.6-11.42c2.87-7.79,2.9-12,2.86-13l-1.28-.57c-.73,0-5.66.2-12.51,1.1a34.48,34.48,0,0,0-10.92,3.26,13,13,0,0,1,4.37,1.89c.66.39,1.35.8,2,1.14a12.77,12.77,0,0,0,5.85.86c1.4,0,2.4,0,2.9.46.7.69.4,1.73,0,3a12.46,12.46,0,0,0-.62,5.49,31.55,31.55,0,0,1,.1,6.52A12.36,12.36,0,0,0,102.35,181.65Z" transform="translate(-11.96 -9.35)" fill="#909191"/><path d="M109.79,158.47c-6.25-1.61-19.05,1.42-19.18,1.46h0c.53-.16,12.91-4,19.39-2.28Z" transform="translate(-11.96 -9.35)" fill="#909191"/><path d="M108.71,159.17c-5.84-.29-13.86,2.08-13.94,2.11h0c.32-.13,8-3.26,14-2.95Z" transform="translate(-11.96 -9.35)" fill="#909191"/><path d="M107.69,160.25c-3,.23-9.89,2.29-10,2.31h0c.27-.11,6.77-2.92,9.89-3.15Z" transform="translate(-11.96 -9.35)" fill="#909191"/><path d="M106.57,162.31s-2.93-.38-4.72.61h0a15.46,15.46,0,0,1,4.61-1.45Z" transform="translate(-11.96 -9.35)" fill="#909191"/><path d="M104.9,177.55h0c.06-.11,5.86-11.93,5.68-18.37l.84,0C111.61,165.84,105.17,177.07,104.9,177.55Z" transform="translate(-11.96 -9.35)" fill="#909191"/><path d="M104.5,173.2h0c0-.07,4.14-7.37,5.15-13.13l.83.14C109.44,166.17,104.7,172.91,104.5,173.2Z" transform="translate(-11.96 -9.35)" fill="#909191"/><path d="M103.91,170h0c0-.06,3.58-6.34,4.46-9.19l.81.25C108.26,164.06,104.08,169.78,103.91,170Z" transform="translate(-11.96 -9.35)" fill="#909191"/><path d="M104.07,166.18h0c1.48-1.42,2-4.3,2-4.32l.77.36A15.75,15.75,0,0,1,104.07,166.18Z" transform="translate(-11.96 -9.35)" fill="#909191"/><path d="M171.33,116.62s-.35,8.7-3.05,11.77c-3.25,3.7-4.64-4.08-4.64-4.08Z" transform="translate(-11.96 -9.35)" fill="#fff"/><path d="M164.2,124.6a12.65,12.65,0,0,0,.29,1.33h0s0,0,0,0c.13.41.28.83.44,1.22.31.65.69,1.14,1.15,1.24s1.13-.26,1.88-1.09a12.43,12.43,0,0,0,2-3.31,39.1,39.1,0,0,0,1-6.14Z" transform="translate(-11.96 -9.35)" fill="#d6d6d6"/><path d="M168.35,128.94a2.19,2.19,0,0,1-2.24.79c-2-.62-2.8-4.87-2.89-5.35l0-.22,8.61-8.61,0,1.09c0,.36-.38,8.88-3.15,12A3.32,3.32,0,0,1,168.35,128.94Zm-4.25-4.49c.32,1.64,1.18,4.14,2.26,4.48.46.14,1-.13,1.6-.81,2-2.29,2.67-8,2.87-10.41Z" transform="translate(-11.96 -9.35)" fill="#909191"/><path d="M167.38,126.85a27.4,27.4,0,0,0,1-3.74,26.81,26.81,0,0,0,.36-3.89l.85,0A18.24,18.24,0,0,1,167.38,126.85Z" transform="translate(-11.96 -9.35)" fill="#909191"/><path d="M165.89,126.43a57.42,57.42,0,0,0,.8-6.9l.85,0A22.2,22.2,0,0,1,165.89,126.43Z" transform="translate(-11.96 -9.35)" fill="#909191"/><path d="M142.36,140.38a23.73,23.73,0,0,1-.12,6.89c-.49,2.62-1.47,5-2.2,5.3s-3-1.58-6.61-2.43c-2.75-.64-6.76-1.15-6.76-1.15Z" transform="translate(-11.96 -9.35)" fill="#fff"/><path d="M128.38,149.23l3.23.41s1.43-1.32,2-1.27,0,1.67.41,1.82,1.7-2.65,2.19-2.53,0,3.37.51,3.58,1.44-3,1.93-2.83.23,3.86.23,3.86l1.26.26.79-1,.81-2.08.73-2.62.26-3.05-.23-2.32-5.68,3-5.31,2.66-3.52,1.7Z" transform="translate(-11.96 -9.35)" fill="#d6d6d6"/><path d="M140.63,152.67a1.11,1.11,0,0,1-.45.3c-.49.17-1.13-.14-2.19-.65a21,21,0,0,0-4.66-1.77c-2.69-.63-6.68-1.13-6.72-1.14l-1.29-.16,17.37-9.54.09.61a24.13,24.13,0,0,1-.12,7C142.21,149.74,141.37,151.93,140.63,152.67Zm-.72-.5a.57.57,0,0,0,.12-.1,11.8,11.8,0,0,0,1.8-4.88,22.72,22.72,0,0,0,.18-6.14l-14,7.7c1.42.2,3.75.56,5.54,1a22.08,22.08,0,0,1,4.83,1.82,5.34,5.34,0,0,0,1.55.62Z" transform="translate(-11.96 -9.35)" fill="#909191"/><path d="M139.5,150.13s.61-9.89.61-9.94l.85,0A32.38,32.38,0,0,1,139.5,150.13Z" transform="translate(-11.96 -9.35)" fill="#909191"/><path d="M137.25,149.23a47.13,47.13,0,0,0,.14-7.43l.84-.07A21.46,21.46,0,0,1,137.25,149.23Z" transform="translate(-11.96 -9.35)" fill="#909191"/><path d="M134.4,149a17.22,17.22,0,0,0,.24-5.7l.85-.1A8.94,8.94,0,0,1,134.4,149Z" transform="translate(-11.96 -9.35)" fill="#909191"/><path d="M132.36,148.56a14,14,0,0,0-.15-3.59l.83-.18A5.88,5.88,0,0,1,132.36,148.56Z" transform="translate(-11.96 -9.35)" fill="#909191"/><path d="M154.2,106.29a22.21,22.21,0,0,0-6.41-4.51c-3.91-1.8-6.3-1.59-6.45-1.42s.31,1,.09,1.64-1.22.63-1.43,1,.47,1.09.44,1.63-1.17,1-1.26,1.35.74,1.19.65,1.59-1.07.82-1.25,1.22.65,1,.62,1.33-1,.85-1.11,1.21.39,1,.39,1.38-.91,1.08-1,1.46.85.92.83,1.26-.83.68-.91,1,.37.7.42,1-.81,4.82-.81,4.82Z" transform="translate(-11.96 -9.35)" fill="#fff"/><path d="M141.42,100.48s3,.78,2.84,1.36-2.23.5-2.4,1.08,2,1.35,1.8,2-2.6.38-2.85,1.07,1.9,1.34,1.67,1.93-2.22.48-2.41,1.07,2.53,1.31,2.31,1.9-2.37.1-2.59.82,1.79,1.54,1.57,2-1.41.29-2.2.27-.85,1.47-.85,1.47l-.86,1.41.32,1.15-.05,1.08,1.89-1.8,3.36-3.35,3.83-3.83,5-4.51.67-.67-2.61-2.17-4.38-1.83-3.44-.79Z" transform="translate(-11.96 -9.35)" fill="#d6d6d6"/><path d="M154.8,106.31l-18.45,17.15.24-1.27c.34-1.76.82-4.38.81-4.7a2.91,2.91,0,0,0-.15-.27,1.16,1.16,0,0,1-.26-.91,1.52,1.52,0,0,1,.58-.68l.28-.22h0l-.24-.25c-.29-.3-.63-.65-.54-1.07a2.2,2.2,0,0,1,.56-.84,2.52,2.52,0,0,0,.43-.55,1.88,1.88,0,0,0-.17-.41,1.37,1.37,0,0,1-.19-1.11,2.42,2.42,0,0,1,.67-.75,4.64,4.64,0,0,0,.37-.34c0-.07-.12-.17-.17-.24-.24-.33-.59-.78-.38-1.23a2.28,2.28,0,0,1,.75-.73,3.89,3.89,0,0,0,.41-.34l.06-.06a3.12,3.12,0,0,0-.27-.49,1.56,1.56,0,0,1-.38-1.1,1.69,1.69,0,0,1,.72-.79c.15-.12.32-.23.43-.34a.37.37,0,0,0,.11-.15,2,2,0,0,0-.22-.61c-.18-.39-.39-.82-.17-1.21a1.5,1.5,0,0,1,.79-.54c.27-.11.55-.23.61-.39A2,2,0,0,0,141,101c-.09-.36-.16-.67.06-.9h0c.45-.45,3.22-.38,6.94,1.33a22.35,22.35,0,0,1,6.54,4.6Zm-17.13,14.77,15.92-14.8a22,22,0,0,0-6-4.11,13.07,13.07,0,0,0-5.85-1.49s0,.07,0,.1a2.43,2.43,0,0,1,0,1.37,1.06,1.06,0,0,1-.26.41,2.52,2.52,0,0,1-.82.47,3.08,3.08,0,0,0-.36.17,2.48,2.48,0,0,0,.19.43,2.41,2.41,0,0,1,.3,1,1.11,1.11,0,0,1-.36.71,4.57,4.57,0,0,1-.54.42,4.13,4.13,0,0,0-.37.3,2.76,2.76,0,0,0,.26.46,1.59,1.59,0,0,1,.38,1.12.92.92,0,0,1-.29.48,5.43,5.43,0,0,1-.51.42c-.15.11-.31.23-.41.32s0,0,0,.05a1.81,1.81,0,0,0,.26.4,1.28,1.28,0,0,1,.37.83,1,1,0,0,1-.34.58c-.1.1-.23.21-.36.32s-.23.2-.32.3a.57.57,0,0,0-.12.13,2.64,2.64,0,0,0,.17.43,1.83,1.83,0,0,1,.25.79,1.87,1.87,0,0,1-.64,1.1c-.1.12-.27.31-.34.41a3,3,0,0,0,.3.34c.27.28.53.55.51.89a.87.87,0,0,1-.29.55,3.17,3.17,0,0,1-.34.3c-.1.07-.19.15-.26.21s0,0,0,0a1.93,1.93,0,0,0,.13.24,1.67,1.67,0,0,1,.28.62A31.83,31.83,0,0,1,137.67,121.08Z" transform="translate(-11.96 -9.35)" fill="#909191"/><path d="M152.49,108.37l-.64.54a19,19,0,0,0-9-5.7A15,15,0,0,1,152.49,108.37Z" transform="translate(-11.96 -9.35)" fill="#909191"/><path d="M149.4,110l-.67.52c-2.5-3.17-7-4.39-7-4.39C141.93,106.15,146.67,106.54,149.4,110Z" transform="translate(-11.96 -9.35)" fill="#909191"/><path d="M147.07,111.83l-.66.53a11.12,11.12,0,0,0-5.2-3.19A8.1,8.1,0,0,1,147.07,111.83Z" transform="translate(-11.96 -9.35)" fill="#909191"/><path d="M145,113.9l-.64.55a14.38,14.38,0,0,0-3.6-2.56C140.86,111.91,143.66,112.35,145,113.9Z" transform="translate(-11.96 -9.35)" fill="#909191"/><path d="M142.79,115.72l-.62.57a24.65,24.65,0,0,0-2.1-1.9A5.24,5.24,0,0,1,142.79,115.72Z" transform="translate(-11.96 -9.35)" fill="#909191"/><path d="M134.73,126.3s-9.45-3.41-10.32-2.81.58,5.19-.15,7.93c-.8,3-3.7,7-3.37,7.93.44,1.26,3.62-.38,3.62-.38Z" transform="translate(-11.96 -9.35)" fill="#fff"/><path d="M127.63,124.19s-2,.44-2.22,1,2.36,1,2.21,1.55-2.07.44-2.12.88,1.76,1.13,1.63,1.51-1.46.26-1.63.67,1,1,.84,1.51-1.39.45-1.55.78.92,1,.61,1.46-1.42.5-1.66.94.31,1,.11,1.45-1.09.48-1.42,1a9.22,9.22,0,0,0-.2,2.85l2-2.54,4.22-5.66,3.4-4.92,1-1.2Z" transform="translate(-11.96 -9.35)" fill="#d6d6d6"/><path d="M124.79,139.31l-.08,0c-.41.21-2.49,1.23-3.59.79a1,1,0,0,1-.63-.65c-.22-.61.3-1.63,1.3-3.54a24.34,24.34,0,0,0,2.07-4.63,14.66,14.66,0,0,0,0-4.72c-.19-1.88-.27-2.88.21-3.36a.44.44,0,0,1,.11-.09c.91-.64,7.1,1.45,10.7,2.75l.56.2Zm-.14-15.45a7.9,7.9,0,0,0,0,2.65,14.87,14.87,0,0,1,0,5,25,25,0,0,1-2.13,4.81,10.56,10.56,0,0,0-1.25,2.86.2.2,0,0,0,.14.14c.53.22,1.94-.28,2.81-.72L134,126.49C129.86,125,125.38,123.67,124.65,123.86Z" transform="translate(-11.96 -9.35)" fill="#909191"/><path d="M133.1,128.35a34.08,34.08,0,0,0-6.79-3h0c.19,0,4.72.6,7.26,2.28Z" transform="translate(-11.96 -9.35)" fill="#909191"/><path d="M133.33,130.77a34.07,34.07,0,0,0-6.8-3h0c.19,0,4.72.61,7.26,2.29Z" transform="translate(-11.96 -9.35)" fill="#909191"/><path d="M133,132.92a35.71,35.71,0,0,0-6.79-3c.19,0,4.72.61,7.26,2.29Z" transform="translate(-11.96 -9.35)" fill="#909191"/><path d="M132,135.14a35.41,35.41,0,0,0-6.79-3c.19,0,4.71.61,7.26,2.28Z" transform="translate(-11.96 -9.35)" fill="#909191"/><path d="M130.92,137.46a35.67,35.67,0,0,0-6.8-3c.19,0,4.72.61,7.26,2.29Z" transform="translate(-11.96 -9.35)" fill="#909191"/><path d="M129.46,140a35.71,35.71,0,0,0-6.79-3c.19,0,4.71.61,7.26,2.29Z" transform="translate(-11.96 -9.35)" fill="#909191"/><path d="M117.38,155.14c15.05-9.79,27.32-12.67,42.18-25.31,22.92-19.51,28.86-40.16,28.1-40.75s-3.57,3.86-4,3.19c-.61-1.07,3.14-4.43,2.26-4.9-5.78-3-28.36,11.09-43,26.3-12.74,13.25-20.63,26.92-26,33.49-4.87,6-14,14.53-12,16.49S109.61,160.19,117.38,155.14Z" transform="translate(-11.96 -9.35)" fill="#fff"/><path d="M183.74,92.75a14.71,14.71,0,0,1-1,4.61c-1,2.78-3.22,6.3-13.2,10s-23.78,18.55-30.62,25-18,15.05-22.29,19.2-11.62,12.18-12,11.71c-1-1.22,6.62-9.22,6.62-9.22l6.09-7.51,3.88-5.18,4.79-7,5.51-7.32,6.07-7.43,5.84-6.52,7.35-7,9-7,4.14-3.2L170.66,92,180,87.69l4.87-.66,1.12.34L185.45,89l-1.62,2.25Z" transform="translate(-11.96 -9.35)" fill="#d6d6d6"/><path d="M183.21,91.93s-.19,4.49-.87,4.83a.69.69,0,0,1-.83-.08l1.08.66.5-1.73Z" transform="translate(-11.96 -9.35)" fill="#fff"/><path d="M183,97.63a.93.93,0,0,1-.65.28,1,1,0,0,1-.78-.33c-.89-.9-.8-3.6-.78-4.13,0,0,.59,3.87,1.54,3.61.69-.18.52-1.9.58-2.81a8.81,8.81,0,0,1,.53-3l.74.4a8.92,8.92,0,0,0-.43,2.71C183.67,95.72,183.57,97.07,183,97.63Z" transform="translate(-11.96 -9.35)" fill="#909191"/><path d="M178.44,92.42a2.06,2.06,0,1,1-2.92,0A2.06,2.06,0,0,1,178.44,92.42Z" transform="translate(-11.96 -9.35)" fill="#fff"/><path d="M178.58,95.47a2.26,2.26,0,1,1,0-3.19A2.25,2.25,0,0,1,178.58,95.47Zm-2.91-2.91a1.86,1.86,0,1,0,2.63,0A1.85,1.85,0,0,0,175.67,92.56Z" transform="translate(-11.96 -9.35)" fill="#909191"/><path d="M177.11,92.67A.37.37,0,0,1,177,93a.41.41,0,0,1-.58,0,.42.42,0,0,1-.09-.14,1.73,1.73,0,0,0-.21.17,1.24,1.24,0,1,0,1-.34Z" transform="translate(-11.96 -9.35)" fill="#1a1a1a"/><path d="M177.8,100.52c0,.08-.34,2.11-2,2.14-1.35,0-2.72-1.14-4.06-3.49h0a5,5,0,0,0,4.05,2.8c1.21,0,1.95-1.43,2-1.45Z" transform="translate(-11.96 -9.35)" fill="#909191"/><path d="M179.15,104.08c-.54,1.22-1.06,2.3-2.61,2.49-1,.12-2-.57-2.9-2,0,0,1.31,1.71,2.8,1.53,2.14-.26,2.67-3,3-4.08A4.9,4.9,0,0,1,179.15,104.08Z" transform="translate(-11.96 -9.35)" fill="#909191"/><path d="M178.82,103.29a3.7,3.7,0,0,1-2.7,1.54h0a4.37,4.37,0,0,0,3.06-2.86h0A2.75,2.75,0,0,1,178.82,103.29Z" transform="translate(-11.96 -9.35)" fill="#909191"/><path d="M177.41,102.52a3.69,3.69,0,0,1-2.94,1h0a4.32,4.32,0,0,0,3.52-2.26h0A2.78,2.78,0,0,1,177.41,102.52Z" transform="translate(-11.96 -9.35)" fill="#909191"/><path d="M177.88,103.15a3.73,3.73,0,0,1-2.94,1h0a4.3,4.3,0,0,0,3.52-2.26h0A2.71,2.71,0,0,1,177.88,103.15Z" transform="translate(-11.96 -9.35)" fill="#909191"/><path d="M171.82,105.09a5.24,5.24,0,0,1-3.12,1.27.42.42,0,0,1-.12-.84c1.24-.16,2.78-.6,3.1-1.8s-.61-2.75-1.7-3.6c-3-2.34-2.06-6.47-2-6.65a.42.42,0,0,1,.82.2s-.85,3.78,1.73,5.78c1.28,1,2.42,2.92,2,4.49A2.55,2.55,0,0,1,171.82,105.09Z" transform="translate(-11.96 -9.35)" fill="#909191"/><path d="M167.6,101a.43.43,0,0,1-.56,0c-1.61-1.24-2-2-1.78-3.18a2,2,0,0,0-.33-1.16,1.71,1.71,0,0,1-.28-1.48.42.42,0,0,1,.55-.22.42.42,0,0,1,.22.56c0,.13.12.48.26.76a2.69,2.69,0,0,1,.42,1.7c-.14.71-.13,1.13,1.46,2.35a.44.44,0,0,1,.08.6Z" transform="translate(-11.96 -9.35)" fill="#1a83a0"/><path d="M165.28,111.49a.42.42,0,0,1-.61-.59c2.49-2.5,1.18-4.21-.21-6a14.91,14.91,0,0,1-.91-1.27c-2.63-4.19-1.09-6.9-1-7a.42.42,0,1,1,.73.43c-.06.09-1.33,2.4,1,6.13.25.39.55.79.87,1.2,1.4,1.83,3.15,4.11.15,7.13Z" transform="translate(-11.96 -9.35)" fill="#909191"/><path d="M162.71,108.62l0,0a.43.43,0,0,1-.6-.06,5.34,5.34,0,0,1-1-3.11,6.19,6.19,0,0,0-.34-1.8,22.42,22.42,0,0,0-2.31-3.59.41.41,0,0,1,.07-.59.42.42,0,0,1,.59.07,22.16,22.16,0,0,1,2.43,3.78,6.84,6.84,0,0,1,.4,2.05,4.65,4.65,0,0,0,.79,2.66A.42.42,0,0,1,162.71,108.62Z" transform="translate(-11.96 -9.35)" fill="#909191"/><path d="M159.69,110a0,0,0,0,0,0,0,.44.44,0,0,1-.6,0c-1.79-2.06-2.39-2.76-2.09-4.46a4.83,4.83,0,0,0-.64-3.68.42.42,0,0,1,.66-.53,5.6,5.6,0,0,1,.81,4.35c-.21,1.24,0,1.59,1.9,3.76A.42.42,0,0,1,159.69,110Z" transform="translate(-11.96 -9.35)" fill="#909191"/><path d="M155.4,107.23a.56.56,0,0,1-.15.1.42.42,0,0,1-.54-.25,3.7,3.7,0,0,0-1.87-2.28.42.42,0,0,1-.25-.54.42.42,0,0,1,.54-.26,4.54,4.54,0,0,1,2.37,2.78A.43.43,0,0,1,155.4,107.23Z" transform="translate(-11.96 -9.35)" fill="#1a83a0"/><path d="M156.69,113.43h0a.42.42,0,0,1-.6,0,5.17,5.17,0,0,1-1.21-2.49,4.08,4.08,0,0,0-.45-1.27c-.23-.38-.67-.41-1.37-.41a2.24,2.24,0,0,1-2.47-3.11.42.42,0,0,1,.53-.29.41.41,0,0,1,.28.52s-.32,1.19.37,1.77a2,2,0,0,0,1.3.26,2.18,2.18,0,0,1,2.09.83,5.16,5.16,0,0,1,.55,1.5,4.32,4.32,0,0,0,1,2.13A.43.43,0,0,1,156.69,113.43Z" transform="translate(-11.96 -9.35)" fill="#909191"/><path d="M153.23,114.69a.49.49,0,0,1-.2.11.43.43,0,0,1-.51-.31,6.66,6.66,0,0,0-2-3.19c-1.42-1.13-4.08-.47-4.1-.47a.42.42,0,1,1-.21-.82c.12,0,3.09-.77,4.84.64a7.32,7.32,0,0,1,2.27,3.64A.43.43,0,0,1,153.23,114.69Z" transform="translate(-11.96 -9.35)" fill="#909191"/><path d="M149.88,118.09a.43.43,0,0,1-.33.13.42.42,0,0,1-.39-.45,3.27,3.27,0,0,0-1-2.44,2.57,2.57,0,0,0-1.85-.34,4.88,4.88,0,0,1-3.5-.88.43.43,0,0,1-.07-.59.41.41,0,0,1,.59-.07,4.12,4.12,0,0,0,3,.7,3.27,3.27,0,0,1,2.43.53,4.06,4.06,0,0,1,1.33,3.14A.42.42,0,0,1,149.88,118.09Z" transform="translate(-11.96 -9.35)" fill="#909191"/><path d="M144.3,123.92h0a.42.42,0,0,1-.6,0,3.46,3.46,0,0,1-1.1-3,1.58,1.58,0,0,0-.4-1.45,4.72,4.72,0,0,0-3.1-1,.43.43,0,0,1-.45-.41.42.42,0,0,1,.41-.44,5.57,5.57,0,0,1,3.73,1.28,2.39,2.39,0,0,1,.65,2.09,2.68,2.68,0,0,0,.86,2.39A.41.41,0,0,1,144.3,123.92Z" transform="translate(-11.96 -9.35)" fill="#909191"/><path d="M147.75,120.78l-.06,0a.43.43,0,0,1-.59-.11,3.71,3.71,0,0,0-2.19-1.53,2.3,2.3,0,0,0-1.82.67.42.42,0,0,1-.6,0,.4.4,0,0,1,0-.59,3.1,3.1,0,0,1,2.5-.88,4.52,4.52,0,0,1,2.77,1.89A.42.42,0,0,1,147.75,120.78Z" transform="translate(-11.96 -9.35)" fill="#909191"/><path d="M143,124.46a.42.42,0,0,1-.57,0,3,3,0,0,0-2.88-.29,5.35,5.35,0,0,1-1.55.21c-1.59-.1-2.54-2.23-2.58-2.32a.42.42,0,1,1,.77-.35c.22.49,1,1.77,1.86,1.82a4.66,4.66,0,0,0,1.31-.18,3.87,3.87,0,0,1,3.6.45.44.44,0,0,1,.07.6Z" transform="translate(-11.96 -9.35)" fill="#909191"/><path d="M140.32,128.26l0,0a.43.43,0,0,1-.6-.06,2.32,2.32,0,0,0-2.28-1.07,8.46,8.46,0,0,1-1,0,6.89,6.89,0,0,1-3.44-1.7.42.42,0,1,1,.58-.62,6.09,6.09,0,0,0,2.94,1.48c.33,0,.61,0,.89,0a3.1,3.1,0,0,1,2.93,1.37A.43.43,0,0,1,140.32,128.26Z" transform="translate(-11.96 -9.35)" fill="#909191"/><path d="M138.67,132l0,0A.42.42,0,0,1,138,132a2.23,2.23,0,0,0-2.66-1,4.78,4.78,0,0,1-1.78,0c-2-.41-2.86-2.75-2.9-2.85a.43.43,0,0,1,.26-.55.42.42,0,0,1,.54.25s.77,2,2.27,2.32a4.31,4.31,0,0,0,1.48,0,3,3,0,0,1,3.47,1.39A.41.41,0,0,1,138.67,132Z" transform="translate(-11.96 -9.35)" fill="#909191"/><path d="M131.78,136.2a.42.42,0,0,1-.59,0A3.48,3.48,0,0,1,129.9,133a1.92,1.92,0,0,0,0-.7,3.58,3.58,0,0,0-1.15-1.34.43.43,0,0,1-.11-.59.42.42,0,0,1,.59-.1,4.33,4.33,0,0,1,1.47,1.74,2.46,2.46,0,0,1,.07,1,2.71,2.71,0,0,0,1,2.55.43.43,0,0,1,0,.6Z" transform="translate(-11.96 -9.35)" fill="#909191"/><path d="M134.33,134.2l-.08.06a.41.41,0,0,1-.58-.13c-.3-.47-1.29-1.75-2.24-1.91a1.12,1.12,0,0,0-.9.25.43.43,0,0,1-.59-.07.41.41,0,0,1,.07-.59,1.88,1.88,0,0,1,1.56-.42c1.52.25,2.76,2.21,2.82,2.29A.41.41,0,0,1,134.33,134.2Z" transform="translate(-11.96 -9.35)" fill="#909191"/><path d="M167.48,106.79c-.58-.69-4.65,1.23-7.54,3.72s-9.91,11-7.66,9.36c4.38-3.17,10.88-2.57,13.44-5.14C167.89,112.54,168.06,107.47,167.48,106.79Z" transform="translate(-11.96 -9.35)" fill="#fff"/><path d="M171.17,93.51l.27-2s-3.57,1.95-10.16,6.44-12.55,10.17-15.36,12.55-11.12,12.27-12.54,14.16-5,6.88-7.21,9.67a38.28,38.28,0,0,0-2.89,4.11l6.29-6.44,14.17-14.66,12.52-11L165.6,101Z" transform="translate(-11.96 -9.35)" fill="#22bbe6"/><path d="M171.17,93.51l.27-2s-3.57,1.95-10.16,6.44-12.55,10.17-15.36,12.55-11.12,12.27-12.54,14.16-5,6.88-7.21,9.67a38.28,38.28,0,0,0-2.89,4.11l6.29-6.44,14.17-14.66,12.52-11L165.6,101Z" transform="translate(-11.96 -9.35)" fill="#d6d6d6"/><path d="M130.21,139.15a.42.42,0,0,1-.58,0c-1.8-1.61-1.73-2.57-1.68-3.34a2.81,2.81,0,0,0,0-.58,4.39,4.39,0,0,0-1-1.83.44.44,0,0,1,0-.6.43.43,0,0,1,.6,0,5.48,5.48,0,0,1,1.27,2.29,3.22,3.22,0,0,1,0,.76c0,.68-.08,1.32,1.4,2.65a.42.42,0,0,1,0,.6Z" transform="translate(-11.96 -9.35)" fill="#909191"/><path d="M128.1,140.83a.43.43,0,0,1-.58,0,7,7,0,0,1-1.91-2.27,3.37,3.37,0,0,0-.19-.32,3.92,3.92,0,0,1-.29-2.87.42.42,0,0,1,.53-.28.43.43,0,0,1,.28.53,3.08,3.08,0,0,0,.21,2.18l.19.34a6.52,6.52,0,0,0,1.73,2,.43.43,0,0,1,.05.6S128.1,140.82,128.1,140.83Z" transform="translate(-11.96 -9.35)" fill="#909191"/><path d="M152.5,119.36s5-4.41,5.36-4.15-.87,1.23-.57,1.4,2.9-2.33,3.24-2.07-1.2,1.35-.87,1.61,3.74-2.52,4-2.11-1.9,1.42-1.69,1.7c.47.65,2.61-.19,2.61-.19L166,114.4l1.37-2.64.38-2.07.05-2.12-.54-1h-1L164,107.75l-3.1,2.09-2.14,1.79-3.72,4Z" transform="translate(-11.96 -9.35)" fill="#d6d6d6"/><path d="M125.53,142.26a.41.41,0,0,1-.11.07.42.42,0,0,1-.57-.18,7,7,0,0,0-2.18-2.66.42.42,0,0,1,.45-.72,7.75,7.75,0,0,1,2.48,3A.44.44,0,0,1,125.53,142.26Z" transform="translate(-11.96 -9.35)" fill="#909191"/><path d="M123.82,144a.42.42,0,0,1-.52.07,9.58,9.58,0,0,1-2.42-2.41A.43.43,0,0,1,121,141a.42.42,0,0,1,.58.11,8.9,8.9,0,0,0,2.16,2.16.42.42,0,0,1,.14.58A.24.24,0,0,1,123.82,144Z" transform="translate(-11.96 -9.35)" fill="#909191"/><path d="M121.76,145.32a.41.41,0,0,1-.49.07,3,3,0,0,1-1.76-1.82.43.43,0,0,1,.33-.5.42.42,0,0,1,.5.32s.2.68,1.32,1.25a.43.43,0,0,1,.18.57A.44.44,0,0,1,121.76,145.32Z" transform="translate(-11.96 -9.35)" fill="#909191"/><path d="M119.83,147.25a.41.41,0,0,1-.46.09c-1.34-.55-1.45-1.44-1.46-1.54a.42.42,0,0,1,.38-.46.42.42,0,0,1,.46.37s.11.51.94.85a.43.43,0,0,1,.23.56Z" transform="translate(-11.96 -9.35)" fill="#909191"/><path d="M117.84,149.24a.41.41,0,0,1-.46.09c-1.3-.54-1.43-1.25-1.44-1.39a.42.42,0,0,1,.38-.46.44.44,0,0,1,.46.36s.13.38.92.71a.43.43,0,0,1,.14.69Z" transform="translate(-11.96 -9.35)" fill="#909191"/><path d="M116,151.67a.43.43,0,0,1-.47.09c-1.33-.55-1.44-1.45-1.45-1.55a.42.42,0,1,1,.84-.08s.1.5.94.85a.41.41,0,0,1,.22.55A.39.39,0,0,1,116,151.67Z" transform="translate(-11.96 -9.35)" fill="#909191"/><path d="M166,115c-1.34,1.34-3.64,1.86-6.07,2.41s-5.24,1.19-7.41,2.77c-.2.14-.68.49-1,.12s-.43-.51,2.3-3.84c1.53-1.87,3.32-3.87,4.65-5.21.45-.44.85-.81,1.18-1.1,2.54-2.18,6.12-4.07,7.51-4a.85.85,0,0,1,.63.28c.75.89.49,6.23-1.78,8.52Zm-13,3.85a24,24,0,0,1,6.73-2.26c2.41-.55,4.49-1,5.66-2.19l.3.3-.29-.31c2-2,2.14-6.72,1.75-7.35-.62-.23-4.15,1.33-7,3.75-.32.28-.69.63-1.13,1.06A75.39,75.39,0,0,0,153,118.89Z" transform="translate(-11.96 -9.35)" fill="#909191"/><path d="M167.69,108.23a36.14,36.14,0,0,0-6.32,3.43,50.3,50.3,0,0,0-6,5.06c6.61-7.76,11.89-9.25,12.13-9.31Z" transform="translate(-11.96 -9.35)" fill="#909191"/><path d="M167.85,109.88s-1.62.64-3.64,1.71a51.12,51.12,0,0,0-5.06,3.16,26.35,26.35,0,0,1,8.44-5.67Z" transform="translate(-11.96 -9.35)" fill="#909191"/><path d="M167.41,111.94a16,16,0,0,0-2.45.71,24.58,24.58,0,0,0-3.69,2.18c.15-.12,3.57-3.09,5.92-3.71Z" transform="translate(-11.96 -9.35)" fill="#909191"/><path d="M166.71,113.74a2.23,2.23,0,0,0-1.19,0,8.49,8.49,0,0,0-1.73.79,8.3,8.3,0,0,1,2.62-1.62Z" transform="translate(-11.96 -9.35)" fill="#909191"/><path d="M167.83,101.4c-.17-4.78,5.31-8.43,5.18-8.86s-10.32,4.63-26.37,19.85S114.81,150,114.81,150s7.27-11.59,28.8-31.54S167.88,103,167.83,101.4Z" transform="translate(-11.96 -9.35)" fill="#909191"/><path d="M186.88,89.84c-1.32,4.81-7.16,18.69-21.13,32.66h0c-2.08,2.07-4.29,4.11-6.56,6-9,7.62-16.88,11.63-25.27,15.87a172,172,0,0,0-16.87,9.4,57.6,57.6,0,0,0-7.71,6.16c-2,1.79-3.59,3.34-4.31,3.24a.54.54,0,0,0,.15.36c.73.73,2.37-.81,4.76-3a56.81,56.81,0,0,1,7.71-6.16,172,172,0,0,1,16.87-9.4c8.39-4.24,16.3-8.25,25.26-15.87,2.28-1.94,4.48-4,6.57-6.06h0c15.81-15.81,21.26-31.28,21.45-33.9-.12.09-.35,0-.63.33C187.07,89.63,187,89.73,186.88,89.84Z" transform="translate(-11.96 -9.35)" fill="#fff"/><path d="M166.45,124.05h0c-2.1,2.1-4.32,4.15-6.62,6.1-9,7.69-17,11.72-25.42,16a169.19,169.19,0,0,0-16.8,9.35,56.12,56.12,0,0,0-7.59,6.07c-2.53,2.31-4,3.71-5.38,2.39-1.59-1.59,1.73-5.51,7.38-11.77,1.62-1.8,3.3-3.66,4.62-5.28,1.71-2.09,3.68-4.92,6-8.19,4.79-6.88,11.36-16.29,20.06-25.34l1.45-1.48a135.54,135.54,0,0,1,24.25-19.06c5-3,14-7.82,17.8-5.83a.66.66,0,0,1,.34.44c.12.52-.34,1.18-1.15,2.3a11.44,11.44,0,0,0-1.2,1.87c.25-.25.58-.62.92-1s.7-.8,1-1.14,1.2-1.2,1.81-.72a.65.65,0,0,1,.23.5C188.28,91.43,183.05,107.45,166.45,124.05Zm-21.74-11.56q-.74.74-1.44,1.47c-8.66,9-15.2,18.38-20,25.23-2.29,3.29-4.27,6.13-6,8.24-1.34,1.65-3,3.51-4.65,5.31-3.61,4-8.55,9.47-7.41,10.61.72.72,1.81-.22,4.2-2.41a56.81,56.81,0,0,1,7.71-6.16,173.12,173.12,0,0,1,16.87-9.4c8.39-4.24,16.31-8.25,25.27-15.87,2.27-1.94,4.48-4,6.56-6h0c15.81-15.81,21.26-31.28,21.45-33.9a5.31,5.31,0,0,0-.59.52c-.32.32-.67.72-1,1.1s-.63.71-.9,1-.72.65-1.06.6a.56.56,0,0,1-.41-.27c-.45-.79.42-2,1.33-3.24a9,9,0,0,0,1-1.54C180.28,85.19,159.37,97.84,144.71,112.49Z" transform="translate(-11.96 -9.35)" fill="#909191"/><path d="M137.17,248.7A114.14,114.14,0,1,1,251.31,134.56,114.27,114.27,0,0,1,137.17,248.7Zm0-225.56A111.43,111.43,0,1,0,248.59,134.56,111.55,111.55,0,0,0,137.17,23.14Z" transform="translate(-11.96 -9.35)" fill="#fff"/><path d="M137.17,259.77A125.21,125.21,0,1,1,262.38,134.56,125.35,125.35,0,0,1,137.17,259.77Zm0-245A119.79,119.79,0,1,0,257,134.56,119.92,119.92,0,0,0,137.17,14.77Z" transform="translate(-11.96 -9.35)" fill="#fff"/><path d="M49.64,126.37h0a2.06,2.06,0,0,0,1.53,1.12h0a2,2,0,0,1,1.12,3.45h0a2,2,0,0,0-.58,1.79h0a2,2,0,0,1-2.94,2.13h0a2,2,0,0,0-1.89,0h0a2,2,0,0,1-2.94-2.13h0a2,2,0,0,0-.58-1.79h0a2,2,0,0,1,1.12-3.45h0A2.06,2.06,0,0,0,46,126.37h0A2,2,0,0,1,49.64,126.37Z" transform="translate(-11.96 -9.35)" fill="#fff"/><path d="M227.79,126.37h0a2,2,0,0,0,1.53,1.12h0a2,2,0,0,1,1.12,3.45h0a2,2,0,0,0-.58,1.79h0a2,2,0,0,1-3,2.13h0a2,2,0,0,0-1.88,0h0a2,2,0,0,1-2.94-2.13h0a2.06,2.06,0,0,0-.58-1.79h0a2,2,0,0,1,1.12-3.45h0a2,2,0,0,0,1.52-1.12h0A2,2,0,0,1,227.79,126.37Z" transform="translate(-11.96 -9.35)" fill="#fff"/><path d="M65.58,96.23,51.36,87.65l1.74-2.9,11.81,7.13,4.35-7.2,2.41,1.45Z" transform="translate(-11.96 -9.35)" fill="#fff"/><path d="M88.7,68.49,86,71,82.34,69.2l-4.91,4.55L79,77.48l-2.63,2.44L69.76,63.2l2.63-2.43Zm-9.08-.62-5.92-3L76.27,71Z" transform="translate(-11.96 -9.35)" fill="#fff"/><path d="M96.06,63.73,88.74,48.67l6.41-3.11a11.78,11.78,0,0,1,3.7-1.3,3.83,3.83,0,0,1,2.46.59,4.87,4.87,0,0,1,1.81,2.06,4.43,4.43,0,0,1,.36,3.28,5.31,5.31,0,0,1-2.3,2.84,7.79,7.79,0,0,1,2.24.47,19.32,19.32,0,0,1,2.92,1.61l3.27,2L106,58.92l-3.79-2.21a23.21,23.21,0,0,0-2.68-1.43,2.59,2.59,0,0,0-1.22-.19,5.83,5.83,0,0,0-1.62.58l-.61.3,3,6.29ZM94.88,53.56l2.25-1.09A13.17,13.17,0,0,0,99.78,51a1.81,1.81,0,0,0,.54-1.05,2.17,2.17,0,0,0-.24-1.28,2,2,0,0,0-1-1,2.05,2.05,0,0,0-1.43,0c-.26.08-1,.43-2.24,1L93,49.74Z" transform="translate(-11.96 -9.35)" fill="#fff"/><path d="M124.79,47.48l-.41-2.79,7.21-1.07,1,6.6a9.12,9.12,0,0,1-2.79,2.24,11,11,0,0,1-3.92,1.38,9.34,9.34,0,0,1-4.7-.42,7.09,7.09,0,0,1-3.36-2.69,10.25,10.25,0,0,1-1.63-4.27,9.63,9.63,0,0,1,.41-4.76,7.34,7.34,0,0,1,2.72-3.56,8.56,8.56,0,0,1,3.84-1.41,8,8,0,0,1,5,.58,5.89,5.89,0,0,1,2.77,3.25l-3.23,1.11a3.53,3.53,0,0,0-1.61-1.73,4,4,0,0,0-2.51-.35,4.58,4.58,0,0,0-3.29,1.9,6,6,0,0,0-.68,4.32,6.53,6.53,0,0,0,2,4.23,4.39,4.39,0,0,0,3.65,1,5.81,5.81,0,0,0,2-.73A7.1,7.1,0,0,0,128.93,49l-.31-2.11Z" transform="translate(-11.96 -9.35)" fill="#fff"/><path d="M143,52.74l2.45-16.58L157.71,38l-.42,2.8-8.94-1.32-.54,3.68,8.32,1.22-.41,2.8-8.32-1.23-.67,4.51L156,51.8l-.41,2.8Z" transform="translate(-11.96 -9.35)" fill="#fff"/><path d="M163.52,56.78l8.85-5.56L171,41.78l3.59,1.64.81,6.29,5.24-3.51,3.56,1.63-8.13,5.22,1.62,10.22L174,61.57l-1-6.82-5.8,3.72Z" transform="translate(-11.96 -9.35)" fill="#fff"/><path d="M185,68.22l10.94-12.69L200,59.08a19.48,19.48,0,0,1,2.88,2.81,4.42,4.42,0,0,1,.76,2.82,5.21,5.21,0,0,1-1.4,3.1,5.36,5.36,0,0,1-2.11,1.6,4.61,4.61,0,0,1-2.16.33,5.07,5.07,0,0,1-1.85-.55,19.22,19.22,0,0,1-2.81-2.11l-1.67-1.43-4.13,4.78Zm11.65-8.33-3.1,3.6,1.4,1.21a8.57,8.57,0,0,0,2.2,1.54,2.1,2.1,0,0,0,1.33.07,2.41,2.41,0,0,0,1.72-2.23,2.32,2.32,0,0,0-.54-1.45A16.71,16.71,0,0,0,197.84,61Z" transform="translate(-11.96 -9.35)" fill="#fff"/><path d="M207.73,78.9a10.66,10.66,0,0,1,4-1.66,8.12,8.12,0,0,1,2.78.09,6.8,6.8,0,0,1,2.43,1,9.32,9.32,0,0,1,2.49,2.7,7.82,7.82,0,0,1,1.23,6.23A10.24,10.24,0,0,1,210,94.11a7.75,7.75,0,0,1-5.09-3.75,7.85,7.85,0,0,1-1.26-6.24A8.65,8.65,0,0,1,207.73,78.9Zm2,2.88a6.18,6.18,0,0,0-2.94,3.42,4.52,4.52,0,0,0,3.55,5.63,6.44,6.44,0,0,0,4.39-1.25,6.33,6.33,0,0,0,3-3.36,4.27,4.27,0,0,0-.6-3.6,4.33,4.33,0,0,0-3-2.08A6.37,6.37,0,0,0,209.7,81.78Z" transform="translate(-11.96 -9.35)" fill="#fff"/><path d="M46.25,164.55l12.07-9.18.75,1.84-8,5.72c-.84.61-1.68,1.18-2.54,1.72l2.76-.42L61.47,163l.89,2.17-6,4.77a41.3,41.3,0,0,1-4.37,3c.93-.18,2-.36,3.23-.54L64.75,171l.75,1.81-15.09,1.86-.71-1.72,9.15-7.12,1.41-1.08c-.68.12-1.26.2-1.75.26L47,166.38Z" transform="translate(-11.96 -9.35)" fill="#fff"/><path d="M57.32,186.71,69,177.88l6.38,8.46-1.38,1-5.22-6.91-3.58,2.71,4.88,6.47-1.37,1-4.88-6.47-4,3,5.42,7.19-1.38,1Z" transform="translate(-11.96 -9.35)" fill="#fff"/><path d="M81,211.32l7.67-12.49,2.48,1.52L88.71,211c-.23,1-.41,1.73-.54,2.22.42-.37,1.06-.9,1.9-1.59l8.32-6.86,2.23,1.36L93,218.64l-1.59-1,6.41-10.46-10,8.23-1.5-.92,2.92-12.85L82.62,212.3Z" transform="translate(-11.96 -9.35)" fill="#fff"/><path d="M101.59,222.57l9.79-12.27,2,.63,1.29,15.79-2.1-.67-.29-4.75-5.84-1.85-2.88,3.75Zm5.85-4.46,4.73,1.51-.23-4.34c-.07-1.31-.09-2.38-.07-3.21a18.85,18.85,0,0,1-1.6,2.43Z" transform="translate(-11.96 -9.35)" fill="#fff"/><path d="M123.83,228.35,125,213.74l1.94.16-.6,7.24,7.85-6.64,2.62.22-6.62,5.41,5.68,9.22-2.55-.21-4.59-7.83-2.58,2.14-.42,5.06Z" transform="translate(-11.96 -9.35)" fill="#fff"/><path d="M145.32,228.92l-2-14.52L153.8,213l.24,1.71-8.58,1.19.62,4.45,8-1.12.24,1.71-8,1.11.68,4.94,8.92-1.24.23,1.72Z" transform="translate(-11.96 -9.35)" fill="#fff"/><path d="M181.53,218.29l-2.93-5.47-9-4.78,2.08-1.11,4.64,2.53c.86.47,1.69,1,2.48,1.48,0-.89.09-1.9.19-3l.46-5.14,2-1.07-1.15,10.21,2.93,5.47Z" transform="translate(-11.96 -9.35)" fill="#fff"/><path d="M191.09,204.11a8,8,0,0,1-2.34-5.57,6.68,6.68,0,0,1,2.4-4.91,7,7,0,0,1,3.38-1.71,6.27,6.27,0,0,1,3.65.37,9.32,9.32,0,0,1,5.24,5.94,6.1,6.1,0,0,1-.13,3.69,7.3,7.3,0,0,1-2,3,7,7,0,0,1-3.43,1.72,6.48,6.48,0,0,1-3.66-.4A8.36,8.36,0,0,1,191.09,204.11Zm1.51-1.31a5.9,5.9,0,0,0,3.84,2.17,4.73,4.73,0,0,0,3.69-1.24,4.68,4.68,0,0,0,1.66-3.55,6.21,6.21,0,0,0-1.85-4.2,7.43,7.43,0,0,0-2.53-1.93,4.62,4.62,0,0,0-2.7-.37,4.83,4.83,0,0,0-2.44,1.19,5,5,0,0,0-1.7,3.42C190.46,199.65,191.13,201.15,192.6,202.8Z" transform="translate(-11.96 -9.35)" fill="#fff"/><path d="M206.46,176l1.1-1.6,7,4.79a10.37,10.37,0,0,1,2.61,2.4,4.23,4.23,0,0,1,.72,2.69,6.34,6.34,0,0,1-1.27,3.28,7,7,0,0,1-2.49,2.38,4,4,0,0,1-2.75.37,9.65,9.65,0,0,1-3.35-1.61l-7-4.8,1.1-1.59,7,4.78a8,8,0,0,0,2.53,1.3,2.68,2.68,0,0,0,1.84-.21,4.32,4.32,0,0,0,1.6-1.47,4.07,4.07,0,0,0,.92-3.06c-.19-.87-1-1.82-2.56-2.86Z" transform="translate(-11.96 -9.35)" fill="#fff"/><path d="M224.83,172.78l-13.69-5.23,2.32-6.07a9.11,9.11,0,0,1,1.43-2.65,3.26,3.26,0,0,1,1.89-1,4.15,4.15,0,0,1,2.28.22,3.72,3.72,0,0,1,2.1,1.88,5.17,5.17,0,0,1,.15,3.4,4.85,4.85,0,0,1,1.1-.83,10.55,10.55,0,0,1,2.4-.81l4.63-.95-.87,2.27-3.54.73c-1,.21-1.82.41-2.39.58a4.71,4.71,0,0,0-1.26.57,3,3,0,0,0-.68.69,6.44,6.44,0,0,0-.45,1l-.81,2.1,6.08,2.33Zm-7-4.73,1.49-3.9a6.28,6.28,0,0,0,.49-2,2.18,2.18,0,0,0-.42-1.38,2.33,2.33,0,0,0-1.08-.83,2.18,2.18,0,0,0-1.87.09,3.55,3.55,0,0,0-1.48,2l-1.66,4.33Z" transform="translate(-11.96 -9.35)" fill="#fff"/></svg>